<svg
    style="position: absolute; width: 0; height: 0; overflow: hidden;"
    version="1.1"
    xmlns="http://www.w3.org/2000/svg"
    xmlns:xlink="http://www.w3.org/1999/xlink"
>
    <defs>
        <symbol id="icon-building" viewBox="0 0 38 32">
            <path d="M1.106 30.821h35.54v-0.516h-35.54zM37.751 15.484v0.001c0-0.004 0-0.008 0-0.013 0-0.403-0.326-0.729-0.729-0.729-0 0-0.001 0-0.001 0h-9.661v-1.621c1.451 0 1.254-0.548 1.254-2.359 0-0.603-1.362-1.196-2.088-1.599l-5.85-3.366c-0.218-0.119-0.342-0.196-0.564-0.321l0.006 0.004c-0.19-0.139-0.403-0.247-0.648-0.322v-1.401c0.719 0 3.283 0.109 3.698-0.135 0.899-0.532-0.268-1.553-0.233-1.855l-0.012 0.018c0.205-0.291 0.383-0.603 0.547-0.966l-0.001 0.004c0.022-0.063 0.033-0.131 0.033-0.202 0-0.345-0.279-0.624-0.624-0.624-0.005 0-0.011 0-0.015 0h-3.981c-0.816 0-0.589 1.209-0.589 2.286v2.876l-0.014 0.003c-0.213 0.064-0.411 0.163-0.58 0.288l-4.126 2.364c-0.794 0.428-1.534 0.897-2.34 1.35-0.423 0.236-0.752 0.434-1.177 0.666-1.097 0.6-0.911 0.498-0.911 2.189 0 1.079 0.574 1.107 1.254 1.107v1.621h-9.807c-0.384 0-0.535 0.357-0.59 0.79v1.348c0 0.488 0.469 0.727 0.959 0.737v11.503c-0.684 0-0.9 0.287-0.959 0.766v1.371l0 0.002c0.027 0.413 0.371 0.741 0.792 0.741 0.033 0 0.065-0.002 0.093-0.005l35.977-0.001c0.037 0.005 0.075 0.008 0.113 0.008 0.429 0 0.777-0.348 0.777-0.777 0-0.006-0-0.012-0-0.017v-1.353c0-0.501-0.435-0.737-0.959-0.737v-11.503c0.684-0.016 0.9-0.309 0.959-0.784v-1.355zM25.437 13.125h0.737v16.001h-0.737zM19.465 22.636h1.918v6.491h-1.918zM16.37 22.636h1.918v6.491h-1.918zM11.577 13.125h0.737v16.001h-0.737zM14.159 21.973c0 0.259-0.026 0.316 0.108 0.481 0.208 0.254 0.604 0.183 0.997 0.183v6.491h-1.769v-16.001h10.765v16.001h-1.768v-6.491c0.709 0 1.106 0.106 1.106-0.663-0.047-0.223-0.219-0.396-0.439-0.442l-0.004-0.001h-8.554c-0.223 0.047-0.395 0.22-0.441 0.439l-0.001 0.004zM27.357 15.853h9.291v0.589h-5.382c-1.012 0-1.012 1.18 0 1.18h4.424v11.503h-8.332v-11.503c0.811 0 1.696 0.158 1.696-0.589s-0.885-0.59-1.696-0.59zM1.107 15.853h9.29v0.589h-4.867c-1.071 0-0.906 1.18-0.075 1.18h4.94v11.503h-8.332v-11.503h0.515c1.052 0 1.052-1.18 0-1.18h-1.475zM10.324 11.282h17.106v0.737h-17.106zM18.877 6.12l6.931 3.981h-13.861l5.184-3c0.242-0.135 1.608-0.982 1.746-0.982zM21.679 1.697c0.049 0.338 0.18 0.638 0.372 0.889l-0.003-0.005h-2.581v-1.472h2.507c-0.135 0.164-0.237 0.361-0.294 0.576l-0.002 0.011z"></path>
            <path d="M15.558 15.853h6.636v1.917h-6.636zM14.378 15.484v2.728c0.028 0.416 0.372 0.743 0.793 0.743 0.033 0 0.065-0.002 0.096-0.006l-0.004 0h7.226c0.491 0 0.885-0.254 0.885-0.737v-2.729c0.001-0.010 0.001-0.022 0.001-0.034 0-0.375-0.293-0.681-0.662-0.703l-0.002-0h-7.668c-0.372 0.021-0.666 0.328-0.666 0.703 0 0.012 0 0.024 0.001 0.036l-0-0.002z"></path>
            <path d="M3.981 25.365h4.498v1.253h-4.498zM2.802 25.365c0 2.938-0.354 2.433 5.677 2.433 1.434 0 1.107-1.039 1.107-2.802 0-0.562-0.595-0.811-1.18-0.811h-4.424c-0.050-0.009-0.107-0.014-0.166-0.014-0.567 0-1.027 0.46-1.027 1.027 0 0.059 0.005 0.117 0.014 0.173l-0.001-0.006z"></path>
            <path d="M29.273 25.365h4.497v1.253h-4.497zM28.167 24.996c0 1.763-0.324 2.802 1.107 2.802h4.497c1.413 0 1.18-1.111 1.18-2.433 0.009-0.050 0.014-0.107 0.014-0.166 0-0.567-0.46-1.027-1.027-1.027-0.059 0-0.116 0.005-0.172 0.014l0.006-0.001h-4.423c-0.586 0-1.18 0.249-1.18 0.811z"></path>
            <path d="M3.982 20.204h4.498v1.253h-4.498zM2.802 20.204c0 0.785-0.179 2.359 0.811 2.359h5.235c1.009 0 0.737-1.565 0.737-2.728-0.030-0.457-0.408-0.816-0.869-0.816-0.032 0-0.063 0.002-0.094 0.005l0.004-0h-4.793c-0.734 0-1.033 0.441-1.033 1.18z"></path>
            <path d="M29.272 20.204h4.498v1.253h-4.498zM28.167 19.835c0 1.162-0.272 2.728 0.737 2.728h5.236c0.99 0 0.811-1.574 0.811-2.359 0-0.739-0.302-1.18-1.033-1.18h-4.793c-0.027-0.003-0.058-0.005-0.090-0.005-0.462 0-0.84 0.36-0.869 0.814l-0 0.003z"></path>
        </symbol>
        <symbol id="icon-diploma" viewBox="0 0 32 32">
            <path d="M17.383 24.117l-0.010-0.028c0.109 0.262 0.193 0.537 0.253 0.849 0.247-0.165 0.707-0.846 0.938-1l-0.586-1.914 0.005 0.012c-0.093-0.201-0.152-0.421-0.169-0.659-0.299 0.025-0.183 0.061-0.542 0.208l0.008-0.003c-0.161 0.073-0.34 0.114-0.528 0.114-0.044 0-0.088-0.002-0.125-0.006zM31.997 6.433l-0.005-0.031c-0.070-0.367-0.181-0.72-0.315-1.022l-0.018-0.046c-0.242-0.554-0.554-1.071-0.911-1.525-0.128-0.172-0.248-0.319-0.384-0.492l-0.786-0.901c-0.164-0.164-0.268-0.199-0.441-0.371-0.99-0.984-2.587-2.047-4.015-2.047-0.889 0-1.198 0.628-1.672 1.14l-0.814 0.942c-0.561 0.545-1.074 1.14-1.557 1.817-0.102 0.24 0.042 0.663 0.357 0.663 0.404 0 0.541-0.262 0.741-0.512l1.119-1.258c0.095-0.089 0.182-0.186 0.265-0.296l0.002-0.004c0.079-0.122 0.184-0.227 0.31-0.308l0.011 0.046c0.205 0.712 0.53 1.374 0.938 1.943l0.028 0.040c0.505 0.69 1.070 1.333 1.694 1.926 0.164 0.164 0.241 0.2 0.406 0.344 0.153 0.133 0.251 0.213 0.409 0.341l-0.006-0.005c0.684 0.605 1.508 1.055 2.459 1.303l-0.005 0.007c-0.209 0.258-0.453 0.488-0.735 0.689l-4.473 3.967c-0.701 0.542-2.119 1.864-2.923 2.576-0.166 0.147-0.073 0.139-0.3 0.2-0.211-0.901-0.064-0.598-0.064-1.5l-0-0.005c-0.034-0.496-0.27-0.935-0.629-1.24-0.531-0.504-0.805-0.242-1.223-1.088l-0.003-0.008c-0.043-0.097-0.097-0.187-0.159-0.267-0.591-0.789-1.296-0.802-2.185-0.709l0.003-0c-0.024 0.001-0.049 0.002-0.073 0.002-0.219 0-0.427-0.044-0.606-0.121l0.016-0.026c0.314-0.49 0.692-0.937 1.126-1.332l0.874-1.003c0.106-0.098 0.204-0.205 0.296-0.325l-0.009 0.009c0.601-0.627 1.17-1.285 1.746-2.028l-0.001 0.002c0.034-0.064 0.053-0.137 0.053-0.214 0-0.253-0.205-0.457-0.457-0.457-0.007 0-0.014 0-0.020 0-0.379 0-0.734 0.557-0.985 0.827l-3.512 3.987c-0.307 0.422-0.719 0.189-1.289 0.587-0.271 0.189-0.36 0.422-0.669 0.58-0.61 0.314-1.205 0.117-1.743 0.757-0.577 0.685-0.36 1.29-0.727 1.773-0.211 0.278-0.377 0.319-0.58 0.67l0.017-0.049c-0.122 0.308-0.223 0.627-0.313 1.004-0.002 0.003-0.612 0.559-0.655 0.595l-0.678 0.572c-0.133 0.106-0.196 0.192-0.32 0.307-0.143 0.133-0.202 0.146-0.345 0.28l-6.625 5.875c-0.128 0.115-0.189 0.202-0.32 0.306-0.822 0.656-1.322 0.955-1.322 1.991l0 0.008c0.032 0.679 0.253 1.309 0.604 1.825l0.021 0.045c0.369 0.708 0.84 1.354 1.391 1.918 0.186 0.184 0.239 0.307 0.403 0.472s0.268 0.2 0.441 0.372l0.87 0.737c0.777 0.648 1.716 1.106 2.787 1.311l0.475-0c0.334-0.032 0.636-0.175 0.868-0.389l0.002-0.002c0.117-0.107 0.224-0.225 0.325-0.359 0.298-0.392 1.562-1.592 1.562-1.938l-0-0.001c-0.013-0.269-0.229-0.485-0.5-0.499-0.416 0-1.188 1.159-1.515 1.486l-0.498 0.564c-0.802 0.665-2.776-0.785-3.406-1.318-0.994-0.839-2.893-2.978-2.893-4.294 0-0.48 0.846-1.019 1.358-1.516l3.98-3.519c0.756-0.584 1.404-1.313 2.152-1.91 0.63-0.504 1.206-1.096 1.83-1.608 0.17-0.138 0.142-0.196 0.366-0.256 0.211 0.901 0.064 0.598 0.064 1.5l0 0.006c0.035 0.463 0.246 0.877 0.567 1.176 0.525 0.55 0.846 0.264 1.285 1.152l0.247 0.378 0.001 0.001c0.037 0.045 0.079 0.086 0.127 0.123l-0.002-0.002c0.383 0.342 0.888 0.55 1.442 0.55 0.19 0 0.374-0.024 0.535-0.067l-0.003 0c0.024-0.001 0.048-0.002 0.072-0.002 0.219 0 0.427 0.044 0.606 0.12-0.075 0.284-0.436 0.585-0.64 0.796l-1.671 1.891c-0.411 0.537-0.923 1-1.356 1.518l-0.007 0.010c-0.105 0.139-0.219 0.27-0.34 0.393l0.001-0.001c-0.11 0.114-0.213 0.236-0.315 0.374-0.198 0.235-0.982 0.917-0.982 1.206s0.033 0.497 0.361 0.576c0.328 0.079 0.603-0.302 0.811-0.528 0.15-0.161 0.179-0.245 0.342-0.408l3.062-3.438c0.244-0.274 0.782-1.052 1.11-1.139l0.035 0.17c0.274 1.128 0.625 2.226 0.989 3.12 0.405 0.599 0.966 0.219 1.28-0.173 0.329-0.411 0.717-0.743 1.009-1.179 0.621 0.145 1.979 0.82 2.412 0.287 0.392-0.482-0.195-1.666-0.363-2.274-0.166-0.592-0.404-1.205-0.55-1.826 0.906 0.211 2.976 1.063 3.813 1.063 0.287 0 0.5-0.386 0.5-0.625l-0.007-0.052c-0.103-0.676-0.277-1.329-0.493-1.886l0.024-0.016c0.611-0.421 1.152-0.934 1.617-1.537 0.282-0.942-1.593-1.145-2.695-1.518l0.036 0.012c-0.285-0.108-0.581-0.191-0.919-0.254 0.071-0.262 0.593-0.656 0.832-0.856l0.598-0.528 0.008-0.005c0.107-0.076 0.207-0.16 0.299-0.251 0.228-0.228 0.401-0.338 0.624-0.564l0.001-0.001c0.090-0.094 0.189-0.18 0.301-0.26l0.006-0.004c0.1-0.083 0.195-0.171 0.286-0.266 0.136-0.127 0.178-0.131 0.313-0.25 0.124-0.109 0.188-0.201 0.316-0.309 0.625-0.523 1.187-1.109 1.83-1.607l2.448-2.175c0.71-0.722 1.368-1.040 1.516-1.75v-0.673zM18.564 20.688c0.407-0.063 0.765-0.15 1.111-0.264l-0.049 0.014c0.209 0.896 0.857 2.616 1.063 3.5-0.397-0.076-0.742-0.174-1.075-0.298l0.045 0.015c-0.337-0.128-0.241-0.316-0.448-0.929zM20.685 18.56l2.525 0.787c0.282 0.087 0.32 0.040 0.425 0.263 0.111 0.295 0.214 0.655 0.291 1.025l0.009 0.050c-0.891-0.207-2.608-0.855-3.5-1.063 0.1-0.297 0.187-0.656 0.245-1.023l0.005-0.039zM23.935 18.56l-1.29-0.397c-0.521-0.139-0.944-0.281-1.357-0.444l0.084 0.029 0.209-0.48c0.069-0.153 0.11-0.332 0.11-0.52 0-0.044-0.002-0.088-0.007-0.131l0 0.005c0.217 0.089 0.485 0.177 0.761 0.246l0.044 0.009c0.256 0.081 0.533 0.161 0.813 0.25 0.512 0.162 1.088 0.366 1.632 0.493-0.155 0.235-0.832 0.694-0.997 0.939zM20.747 16.561c0 0.798-0.923 0.934-1.061 2.003-0.219 1.704-1.006 0.488-2.36 1.827-0.909 0.9-1.411-0.225-2.431-0.118-0.176 0.039-0.398 0.075-0.623 0.099l-0.027 0.002c-0.803 0-0.892-0.832-1.295-1.267-0.331-0.36-0.896-0.479-1.133-0.804-0.552-0.759 0.287-0.966-0.384-2.303-0.661-1.312 0.618-1.146 0.869-2.571 0.308-1.757 1.075-0.489 2.367-1.822 0.075-0.092 0.163-0.169 0.263-0.23l0.005-0.003c0.799-0.421 1.115 0.39 2.171 0.341 0.296-0.013 1.046-0.33 1.434 0.364 0.444 0.794 0.424 0.875 1.292 1.334 0.907 0.479 0.32 1.235 0.502 2.059 0.071 0.316 0.413 0.786 0.413 1.092zM25.372 3.249c0.103-0.123-0.029-0.083 0.29 0.085 0.115 0.060 0.181 0.083 0.293 0.145 0.542 0.335 1.011 0.708 1.433 1.129v0c0.497 0.478 0.916 1.034 1.237 1.649l0.017 0.035 0.116 0.342-0.486-0.347c-0.515-0.367-0.967-0.754-1.382-1.177l-0.002-0.002c-0.418-0.404-0.796-0.843-1.132-1.315l-0.020-0.029zM24.747 1.624l0.064-0.563c0.931-0.448 2.928 0.944 3.641 1.672 1.072 1.093 2.873 2.784 2.484 4.453-1.513 0.353-0.768-0.361-1.612-1.701-0.461-0.721-0.994-1.342-1.602-1.881l-0.009-0.008c-0.162-0.128-0.21-0.205-0.357-0.33-0.567-0.484-1.242-0.862-1.981-1.093l-0.040-0.011c-0.375-0.088-0.586 0.097-0.586-0.539z"></path>
            <path d="M13.375 16c0.023-0.389 0.113-0.751 0.258-1.083l-0.008 0.020c0.069-0.16 0.14-0.295 0.221-0.424l-0.007 0.012c0.268-0.401 0.642-0.711 1.083-0.896l0.016-0.006c0.316-0.148 0.687-0.234 1.078-0.234 0.545 0 1.050 0.167 1.468 0.453l-0.009-0.006c0.261 0.177 0.48 0.394 0.656 0.643l0.005 0.008c0.295 0.417 0.472 0.936 0.472 1.497 0 0.39-0.086 0.76-0.239 1.092l0.007-0.016c-0.409 0.918-1.313 1.547-2.364 1.547-0.389 0-0.759-0.086-1.090-0.241l0.016 0.007c-0.589-0.262-1.051-0.723-1.306-1.297l-0.006-0.016c-0.137-0.312-0.227-0.673-0.25-1.053l-0-0.009zM12.438 15.75c-0.007 0.082-0.010 0.178-0.010 0.274 0 0.966 0.378 1.844 0.995 2.494l-0.001-0.002c0.594 0.576 1.379 0.959 2.251 1.045l0.016 0.001c0.108 0.012 0.233 0.019 0.36 0.019 0.865 0 1.655-0.318 2.261-0.843l-0.004 0.004c0.239-0.178 0.44-0.39 0.602-0.631l0.006-0.009c0.109-0.149 0.208-0.319 0.29-0.498l0.007-0.018c1.156-2.31-0.584-5.146-2.959-5.146h-0.5c-1.784 0.108-3.203 1.526-3.313 3.3l-0.001 0.010z"></path>
        </symbol>
        <symbol id="icon-analytics" viewBox="0 0 31 32">
            <path d="M14.625 30.624c0 0.557 0.625 0.433 0.625 0.128v-7.064h-0.625v6.936zM6.497 0.001c-0.512 0-0.44 1.116-0.625 1.5-1.088-0.73-1.132-1.024-1.984-0.172-0.472 0.472-1.085 0.773-0.618 1.46l-0.006-0.008c0.194 0.248 0.354 0.524 0.483 0.844l-0.028 0.002c-0.35 0.037-0.691 0.101-0.977 0.181-0.372 0.101-0.496 0.289-0.496 0.754l-0.020 0.002c-0.314 0.042-0.617 0.121-0.876 0.224l-0.014 0.006c-0.258 0.117-0.49 0.282-0.684 0.484l0.001-0.001c-0.406 0.429-0.655 1.008-0.655 1.645 0 0.005 0 0.010 0 0.014v14.437c0 1.060 0.877 2.313 2 2.313h2.060c0 1.395 1.621 2.875 3 2.875l-0.011-0c0.078 0.005 0.156 0.007 0.235 0.007 0.503 0 0.985-0.094 1.401-0.257-0.088 1.064-1.062 3.469-1.062 4.625l0.001 0.007c0.047 0.3 0.206 0.564 0.434 0.748l-0.004-0.003c0.255 0.192 0.571 0.305 0.914 0.305 0.421 0 0.801-0.171 1.077-0.447 0.339-0.423 0.822-2.71 0.979-3.334 0.198-0.789 0.384-1.464 0.576-2.24l0.588-2.287c0.174 0 1.292-0.017 1.364 0.010 0.264 0.096 0.136 0.961 0.136 1.24v5.498c-0.006 1.050 0.382 1.562 1.438 1.562 0.688 0 1.125-0.81 1.125-1.437v-6.868c1.317 0 1.431-0.202 1.577 0.422l1.035 4.090c0.153 0.611 0.634 2.897 0.973 3.34l0.002 0.003c0.198 0.252 0.493 0.424 0.834 0.458l0.341-0c0.699-0.026 1.258-0.602 1.258-1.307 0-0.049-0.003-0.096-0.007-0.138-0.070-0.434-0.182-0.726-0.288-1.152-0.102-0.413-0.19-0.764-0.287-1.152-0.192-0.757-0.388-1.483-0.576-2.24-0.089-0.358-0.199-0.795-0.287-1.152l0.011 0.036c-0.135-0.378-0.227-0.776-0.274-1.211l7.321-0.001c0.535-0.067 1.015-0.31 1.38-0.67l-0.002 0.002c0.353-0.387 0.578-0.892 0.61-1.456v-10.25l-0 0.001c0.001-0.011 0.001-0.022 0.001-0.033 0-0.129-0.054-0.246-0.141-0.328v0c-0.085-0.085-0.203-0.138-0.333-0.138-0.26 0-0.47 0.211-0.47 0.47 0 0.008 0 0.016 0.001 0.023-0.048 0.951 0.005 1.928 0.005 2.88 0 1.193 0.106 6.863-0.064 7.56l-0.002 0.009c-0.114 0.473-0.491 0.844-0.977 0.95-0.553 0.138-15.52 0.045-17.204 0.045l-0.002-0.019c-0.247-1.617-1.643-2.856-3.33-2.856-0.864 0-1.652 0.325-2.246 0.858l-0.003 0.002c-0.56 0.508-0.943 1.208-1.047 2.013-0.723 0-2.074 0.175-2.612-0.326l-0.002-0.002c-0.233-0.198-0.395-0.475-0.446-0.798v-13.751h2.125c0.027 0.32 0.882 1.062 1.138 1.3 0.311 0.29 0.518 0.207 0.838-0.011l-0.022 0.015c0.242-0.173 0.495-0.331 0.796-0.492 0.253 0.526 0.033 1.5 0.813 1.5 0.725 0 1.749 0.218 1.941-0.496l-0.009 0.037c0.096-0.328 0.161-0.67 0.193-1.041 0.578 0.134 1.039 0.976 1.636 0.512l0.011-0.008c0.463-0.353 0.856-0.793 1.165-1.317h12.871l-4.297 4.328-0.022-0.027c-0.595-0.696-1.239-1.35-1.946-1.973-0.956-0.959-1.318-0.463-2.188 0.406-0.225 0.225-1.010 0.845-0.964 1.181 0.068 0.494 0.596 0.515 0.882 0.238 0.038-0.035 0.067-0.073 0.12-0.128l0.064-0.064 1.227-1.148 0.020 0.024c0.733 0.855 1.545 1.64 2.462 2.37 0.714 0.314 1.169-0.324 1.536-0.691l5.469-5.467c0.252-0.252 0.516-0.453 0.516-0.86 0-0.313-0.393-0.382-0.748-0.377-0.811 0.010-0.966-0.101-0.815-0.748l-0.093 0.007c0.731-0.069 1.472-0.105 2.221-0.105 0.439 0 0.875 0.012 1.247 0.033l0.002 0c0.163 0.019 0.291 0.148 0.311 0.312v3.125c0 0.277-0.296 0.312-0.5 0.312-0.646 0 0.043-1.328-0.633-1.623-0.433-0.189-1.008 0.608-1.289 0.889l-5.731 5.727c-0.358 0.395-0.741 0.768-1.162 1.13l-0.022-0.026c-0.59-0.691-1.228-1.339-1.931-1.958-1.012-1.016-1.382-0.399-2.188 0.406l-2.813 2.813c-0.179 0.179-0.352 0.453-0.672 0.453-0.595 0-0.481-0.516-0.192-0.82l0.285-0.277 0.034-0.029c0.055-0.048 0.094-0.086 0.162-0.15l0.031-0.031 0.314-0.311c0.289-0.301 1.306-1.076 1.306-1.507l-0 0.001c0.001-0.009 0.001-0.018 0.001-0.027 0-0.25-0.192-0.454-0.438-0.474-0.397 0-0.932 0.714-1.203 0.984-0.39 0.39-0.733 0.736-1.125 1.125l-0.003 0.002c-0.206 0.166-0.372 0.381-0.483 0.638l0.003-0.009c-0.063 0.158-0.097 0.33-0.097 0.51 0 0.761 0.617 1.377 1.377 1.377 0.388 0 0.738-0.16 0.989-0.419l1.564-1.563c0.040-0.041 0.083-0.080 0.131-0.118l0.573-0.552 0.015-0.020c0.446-0.548 0.946-1.052 1.509-1.516 0.67 0.448 1.942 2.163 2.59 2.413 0.728 0.281 1.184-0.406 1.551-0.772l1.252-1.251c0.492-0.492 4.608-4.722 5.047-5.016l0.003 0.010c0.199 0.569 0.736 0.98 1.372 0.99l0.002-0c0.764-0.016 1.378-0.64 1.378-1.408 0-0.032-0.001-0.063-0.003-0.091v-2.875l-0-0.002c-0.019-0.729-0.588-1.32-1.313-1.374h-3.132c-0.264 0.001-0.507 0.091-0.699 0.238l-0.256 0.241c-0.096 0.106-0.132 0.209-0.291 0.209h-12.376c0-0.506 0.007-0.65-0.597-0.778l0.029 0.008c-0.294-0.089-0.602-0.145-0.932-0.167 0.719-1.366 1.123-1.034 0.015-2.141s-0.775-0.707-2.141 0.015l-0.001-0.012c-0.018-0.302-0.068-0.597-0.139-0.849-0.083-0.412-0.184-0.576-0.443-0.64h-1.728zM18.75 23.688c1.116 0 0.616-0.271 1.195 1.68 0.172 0.579 0.31 1.216 0.467 1.845 0.11 0.44 0.892 3.305 0.9 3.663-0.726 0.486-0.751-0.040-0.883-0.492-0.172-0.591-1.671-6.407-1.679-6.696zM9 31.062c-0.48 0-0.436-0.289-0.34-0.649s0.159-0.635 0.252-1.002l1.031-3.968c0.076-0.198 0.314-0.437 0.469-0.781 0.143-0.283 0.241-0.614 0.274-0.963l0.001-0.011h0.5c-0.090 0.253-0.177 0.568-0.242 0.89l-0.008 0.047-1.45 5.676c-0.072 0.287-0.113 0.762-0.487 0.762zM7.375 25.622c-1.261-0.017-2.288-0.999-2.376-2.24l-0-0.008c-0.007-0.067-0.011-0.145-0.011-0.225 0-0.615 0.249-1.171 0.651-1.574l-0 0c0.436-0.45 1.045-0.729 1.72-0.729 1.322 0 2.393 1.071 2.393 2.393 0 0.025-0 0.051-0.001 0.076l0-0.004c-0.057 1.275-1.094 2.29-2.373 2.312l-0.002 0zM3.625 6.87h-2.624c-0.001-0.020-0.002-0.044-0.002-0.069 0-0.687 0.557-1.244 1.244-1.244 0.003 0 0.005 0 0.008 0h-0c0 1.079 0.813 0.67 1.5 1-0.073 0.273-0.12 0.108-0.126 0.317zM10.938 6.56c1.393-0.324 1.5-0.159 1.5-1h12.374c0.054 0.508 0.438 0.913 0.931 0.999l0.007 0.001c-0.042 0.159-0.121 0.312-0.312 0.312h-14.188c-0.177 0-0.223-0.18-0.312-0.312zM4.188 2.375l0.487-0.448c0.562 0.145 0.554 0.576 1.325 0.576 0.786 0 0.947-0.928 1-1.562h0.751c0.055 0.412 0.135 0.778 0.243 1.133l-0.013-0.050c0.171 0.293 0.485 0.486 0.843 0.486 0.041 0 0.082-0.003 0.122-0.008l-0.005 0.001c0.256 0 0.644-0.341 1.062-0.563l0.512 0.485c-0.143 0.484-0.576 0.593-0.576 1.203-0.001 0.013-0.001 0.029-0.001 0.044 0 0.341 0.193 0.638 0.476 0.786l0.005 0.002c0.305 0.095 0.671 0.175 1.047 0.226l0.036 0.004v0.75c-0.625 0.145-1.136 0.111-1.376 0.499-0.453 0.733-0.010 1.143 0.438 1.813l-0.512 0.485c-0.588-0.29-0.814-0.611-1.172-0.611-0.902 0-1.059 0.768-1.125 1.563h-0.754c-0.172-0.737-0.106-1.563-1.188-1.563-0.269 0-0.865 0.488-1.125 0.625l-0.485-0.512c0.17-0.34 0.611-0.788 0.611-1.173 0-1.002-0.884-0.967-1.563-1.125v-0.75c0.412-0.055 0.778-0.135 1.132-0.243l-0.050 0.013c0.295-0.192 0.487-0.52 0.487-0.893 0-0.045-0.003-0.089-0.008-0.132l0.001 0.005-0.625-1.062z"></path>
            <path d="M4.682 12.624h3.797v0.822h-3.797zM3.669 12.054v1.898c-0.001 0.009-0.001 0.021-0.001 0.032 0 0.263 0.213 0.476 0.476 0.476 0.011 0 0.022-0 0.033-0.001l-0.001 0h4.81c0.009 0.001 0.021 0.001 0.032 0.001 0.263 0 0.476-0.213 0.476-0.476 0-0.011-0-0.022-0.001-0.033l0 0.001c0-1.502 0.246-2.341-0.696-2.341-0.687 0-4.534-0.106-4.893 0.106-0.124 0.069-0.211 0.191-0.231 0.335l-0 0.002z"></path>
            <path d="M6.378 5.316c0-0.378-0.041-0.651 0.305-0.96 0.181-0.158 0.42-0.255 0.682-0.255 0.574 0 1.039 0.465 1.039 1.039 0 0.017-0 0.034-0.001 0.050l0-0.002c0 1.342-2.025 1.199-2.025 0.128zM5.365 5.060c-0.001 0.026-0.002 0.057-0.002 0.087 0 1.049 0.804 1.91 1.829 2l0.008 0.001c0.058 0.006 0.126 0.009 0.194 0.009 1.121 0 2.030-0.909 2.030-2.030s-0.909-2.030-2.030-2.030c-1.097 0-1.991 0.871-2.029 1.959l-0 0.003z"></path>
            <path d="M17.021 19.997c0 0.245 0.084 0.57 0.38 0.57h9.112c0.255-0.010 0.457-0.218 0.457-0.475s-0.203-0.465-0.457-0.475l-0.001-0h-9.112c-0.191 0.040-0.34 0.188-0.379 0.376l-0.001 0.003z"></path>
            <path d="M20.692 17.935c0 0.301 0.020 0.57 0.443 0.57h5.376c0.691 0 0.529-0.949 0.064-0.949h-5.504c-0.191 0.040-0.339 0.188-0.378 0.376l-0.001 0.003z"></path>
            <path d="M3.67 15.75c0 0.355 0.372 0.506 0.696 0.506h2.784c0.384 0 0.673-0.064 0.777-0.37 0.017-0.048 0.027-0.103 0.027-0.16 0-0.265-0.215-0.48-0.48-0.48-0.003 0-0.006 0-0.009 0h-3.29c-0.009-0.001-0.020-0.001-0.030-0.001-0.263 0-0.476 0.213-0.476 0.476 0 0.010 0 0.020 0.001 0.030l-0-0.001z"></path>
            <path d="M6.872 22.611v1.202c-0 0.008-0.001 0.017-0.001 0.025 0 0.28 0.227 0.507 0.507 0.507s0.507-0.227 0.507-0.507c0-0.009-0-0.018-0.001-0.027l0 0.001c0-0.84 0.163-1.709-0.506-1.709-0.010-0.001-0.021-0.001-0.032-0.001-0.263 0-0.476 0.213-0.476 0.476 0 0.011 0 0.023 0.001 0.034l-0-0.002z"></path>
        </symbol>
        <symbol id="icon-master" viewBox="0 0 32 32">
            <path d="M17.312 28.187l-0.070-0.165c0.4 0.844 0.758 1.711 1.13 2.79h0.128l0.007-0.027c0.074-0.246 0.172-0.482 0.281-0.684 0.435-0.88 1.031-0.085 1.587-0.038l-0.604-1.459c-0.114-0.255-0.178-0.452-0.292-0.708-0.109-0.244-0.186-0.489-0.291-0.709l0-0c-0.5 0.493-1.138 0.846-1.876 1zM32 21.338c-0.076-2.229-0.45-4.31-1.294-4.735-0.374-0.189-2.723 0.238-3.235 0.308-1.468 0.205-3.047 0.34-4.539 0.461l-2.367 0.128c-0.878 0.001-1.586 0.060-2.502 0.060h-4.125c-1.748 0-5.133-0.184-7.052-0.384-0.714-0.075-1.507-0.16-2.249-0.251-0.716-0.088-1.489-0.199-2.203-0.297-0.975-0.135-1.235-0.232-1.683 0.56-0.495 0.876-0.75 2.842-0.75 4.249v1.016c0.010 1.894 0.116 4.616 1.047 5.563l0 0c0.15 0.16 0.363 0.26 0.599 0.26 0.079 0 0.156-0.011 0.222-0.031l4.149-0.544c1.044-0.13 4.592-0.396 5.482-0.393l-0.014-0.001c0.103 0.007 0.207 0.010 0.311 0.010 0.293 0 0.579-0.027 0.828-0.073l-0.003 0.015c-0.049 0.244-0.135 0.475-0.246 0.674l0.025-0.052c-0.365 0.699-0.645 1.449-0.839 2.301v0.001c0.009 0.574 0.477 1.037 1.054 1.037 0.092 0 0.182-0.012 0.26-0.033l-0.023 0.008c0.199-0.084 0.408-0.151 0.646-0.2l0 0.004c0.052 0.549 0.507 0.98 1.067 0.996l0.162-0c0.29-0.011 0.548-0.149 0.721-0.362l-0.011 0.020c0.153-0.249 0.282-0.514 0.395-0.823l0.034-0.102c0.212-0.559 0.458-1.101 0.695-1.544l1 2.375 0.002 0.004c0.17 0.257 0.459 0.428 0.789 0.434h0.135c0.564-0.008 1.025-0.443 1.075-1 0.331 0.027 0.535 0.25 0.875 0.25l0.003-0c0.528-0.033 0.96-0.422 1.059-0.937 0-0.75-0.461-1.488-0.795-2.33l0.015 0.035c-0.103-0.214-0.194-0.436-0.283-0.705l4.12 0.256c1.683 0.131 3.248 0.339 4.915 0.585 1.001 0.144 1.378 0.42 1.983-1.008l-0.025 0.099c0.369-1.255 0.568-2.584 0.568-3.959 0-0.027-0-0.053-0-0.076v-1.872zM14.688 30.812h-0.128c-0.107-0.359-0.253-0.673-0.439-0.958l0.009 0.014c-0.361-0.36-0.852-0.057-1.444 0.256 0.101-0.433 1.109-2.601 1.187-2.938 0.502 0.489 1.139 0.841 1.85 0.995l0.025 0.005c-0.102 0.192-0.169 0.398-0.256 0.617s-0.177 0.409-0.277 0.66-0.182 0.421-0.277 0.66c-0.105 0.198-0.192 0.428-0.247 0.669l-0.004 0.019zM13.875 24.562c-0-0.010-0-0.021-0-0.033 0-1.467 1.189-2.656 2.656-2.656s2.656 1.189 2.656 2.656c0 1.456-1.172 2.639-2.624 2.656h-0.002c-1.459-0.008-2.644-1.171-2.687-2.62l-0-0.004zM1.063 22.75c-0.005-0.156-0.008-0.339-0.008-0.522 0-1.147 0.111-2.268 0.323-3.353l-0.018 0.11c0.064-0.311 0.18-0.715 0.203-0.985 0.009 0.012 0.020 0.018 0.023 0.040l0.064 0.123c0.125 0.432 0.235 0.96 0.309 1.5l0.007 0.060c0.11 0.794 0.172 1.711 0.172 2.642 0 1.246-0.112 2.466-0.327 3.65l0.019-0.124c-0.064 0.326-0.18 0.627-0.204 0.921l-0.139-0.424c-0.27-1.062-0.424-2.282-0.424-3.538 0-0.035 0-0.071 0-0.106l-0 0.005zM14.063 18.687h3.5c0.236 0 0.192 0.236 0.239 0.448 0.15 0.592 0.244 1.275 0.261 1.978l0 0.011c-1.78-0.942-3.436 0.246-3.688 0.312-0.045-1.006-0.157-1.951-0.332-2.873l0.020 0.124zM18.813 18.623c0.185 0.004 0.402 0.007 0.62 0.007 0.847 0 1.685-0.038 2.513-0.113l-0.107 0.008c0.384-0.058 1.093-0.079 1.471-0.088 1.016-0.026 6.687-0.663 6.999-0.813 0.084 0.362 0.192 0.598 0.276 1.036s0.123 0.721 0.192 1.186l0.164 2.528c0 0.432-0.070 0.74-0.064 1.25 0 0.005 0 0.010 0 0.015 0 0.449-0.032 0.89-0.093 1.321l0.006-0.049c-0.099 0.829-0.266 1.578-0.499 2.297l0.024-0.085c-0.448-0.019-0.871-0.070-1.283-0.153l0.052 0.009c-0.376-0.054-0.848-0.113-1.265-0.172l-6.503-0.56c-0.554 0.004-0.843-0.064-1.375-0.064 0.020-0.237 1.004-2.246-0.491-4.009-0.138-0.163-0.216-0.156-0.256-0.37-0.049-0.269-0.077-2.554-0.379-3.183zM2.691 17.811l4.964 0.536 5.224 0.276c0.284 1.013 0.447 2.177 0.447 3.378 0 0.175-0.003 0.349-0.010 0.522l0.001-0.025c-0.311 0.608-0.493 1.325-0.493 2.086 0 0.332 0.035 0.655 0.101 0.967l-0.005-0.030c0.083 0.188 0.155 0.41 0.207 0.64l0.005 0.024c-1.933 0-3.583 0.163-5.374 0.251l-5.064 0.561c0.688-1.439 0.688-7.743-0.004-9.186z"></path>
            <path d="M9.188 13.25c0.235-0.073 0.43-0.149 0.618-0.237l-0.030 0.013c2.542-0.963 9.777-0.96 12.404-0.017 0.166 0.077 0.375 0.159 0.59 0.23l0.043 0.012c-0.052 0.196-0.033 0.144-0.203 0.235-0.758 0.296-1.641 0.52-2.558 0.634l-0.055 0.006c-2.722 0.376-7.748 0.414-10.248-0.496-0.661-0.241-0.459-0.18-0.562-0.376zM9.060 12.125v-4.625c0.36-0.22 0.778-0.393 1.223-0.495l0.029-0.006c1.712-0.365 3.678-0.575 5.693-0.575 1.993 0 3.938 0.205 5.815 0.594l-0.185-0.032c0.491 0.112 0.925 0.288 1.32 0.523l-0.021-0.011v4.625l-1.437-0.438c-2.839-0.694-8.939-0.698-11.743 0.196-0.209 0.064-0.491 0.195-0.695 0.242zM26.684 9.062c-0.001-0.009-0.001-0.020-0.001-0.031 0-0.26 0.211-0.47 0.47-0.47 0.011 0 0.021 0 0.032 0.001l-0.001-0c0.228 0 0.5 0.173 0.5 0.375v1.688h-0.997v-1.562zM27.747 7.5v-2.19c0.286 0.055 0.539 0.139 0.777 0.251l-0.020-0.008c0.592 0.197 1.876 0.704 2.367 0.82zM7.997 8.875c-0.222-0.104-0.494-0.207-0.773-0.29l-0.045-0.011c-0.679-0.248-5.738-2.111-6.055-2.136 0.253-0.132 0.55-0.253 0.859-0.347l0.037-0.010 12.066-4.307c0.344-0.113 0.605-0.223 0.922-0.328 1.365-0.448 0.629-0.448 2.311 0.109l9.305 3.32v2.687c-1.45 0.768 0.187 0.331-1.898 1.040-0.283 0.080-0.524 0.173-0.755 0.285l0.028-0.012c0-0.462 0.024-0.987 0-1.44-0.090-2.004-6.655-2.124-8-2.124-1.322 0-7.838 0.138-8.003 2.064-0.036 0.43 0 1.050 0 1.5zM0 6.375c0 1.088 1.239 1.216 2.634 1.741 0.352 0.132 0.733 0.267 1.061 0.377l4.302 1.507c0 3.541-0.564 4.094 1.914 4.835 0.375 0.111 0.844 0.215 1.322 0.29l0.066 0.009c2.894 0.477 8.026 0.52 10.782-0.299 2.478-0.736 1.915-1.288 1.915-4.835 0.354-0.029 1.219-0.472 1.562-0.5-0.013 0.139-0.020 0.301-0.020 0.465 0 0.379 0.040 0.748 0.115 1.105l-0.006-0.035c0.315 0.902 1.303 0.713 2.1 0.713 1.366 0 1.063-1.802 1.063-2.687-0.029-0.285-0.075-0.54-0.136-0.789l0.008 0.039c0.787-0.222 1.423-0.443 2.043-0.696l-0.129 0.047c0.94-0.329 1.399-0.408 1.399-1.413 0-0.74-1.017-0.997-1.571-1.179l-2.023-0.72c-0.681-0.264-1.343-0.487-2.018-0.731l-3.096-1.095c-1.1-0.385-6.799-2.524-7.225-2.524-0.57 0-3.671 1.203-4.274 1.413l-6.125 2.187c-0.348 0.122-0.662 0.227-1.012 0.363l-4.126 1.499c-0.311 0.192-0.517 0.527-0.525 0.912l-0 0.001z"></path>
        </symbol>
        <symbol id="icon-arrow" viewBox="0 0 32 32">
            <path d="M15 23l3 3 10-10-10-10-3 3 7 7z"></path>
            <path d="M4 23l3 3 10-10-10-10-3 3 7 7z"></path>
        </symbol>
        <symbol id="icon-ctrl" viewBox="0 0 32 32">
            <path d="M9 25.801c0-0.39 0.162-0.777 0.478-1.054l9.996-8.746-9.996-8.746c-0.582-0.509-0.641-1.394-0.132-1.976s1.394-0.641 1.976-0.132l11.2 9.8c0.304 0.266 0.478 0.65 0.478 1.054s-0.174 0.788-0.478 1.054l-11.2 9.8c-0.582 0.509-1.466 0.45-1.976-0.132-0.232-0.266-0.346-0.594-0.346-0.921z"></path>
        </symbol>
        <symbol id="icon-instagram" viewBox="0 0 32 32">
            <path d="M16 2.881c4.275 0 4.781 0.019 6.462 0.094 1.563 0.069 2.406 0.331 2.969 0.55 0.744 0.288 1.281 0.638 1.837 1.194 0.563 0.563 0.906 1.094 1.2 1.838 0.219 0.563 0.481 1.412 0.55 2.969 0.075 1.688 0.094 2.194 0.094 6.463s-0.019 4.781-0.094 6.463c-0.069 1.563-0.331 2.406-0.55 2.969-0.288 0.744-0.637 1.281-1.194 1.837-0.563 0.563-1.094 0.906-1.837 1.2-0.563 0.219-1.413 0.481-2.969 0.55-1.688 0.075-2.194 0.094-6.463 0.094s-4.781-0.019-6.463-0.094c-1.563-0.069-2.406-0.331-2.969-0.55-0.744-0.288-1.281-0.637-1.838-1.194-0.563-0.563-0.906-1.094-1.2-1.837-0.219-0.563-0.481-1.413-0.55-2.969-0.075-1.688-0.094-2.194-0.094-6.463s0.019-4.781 0.094-6.463c0.069-1.563 0.331-2.406 0.55-2.969 0.288-0.744 0.638-1.281 1.194-1.838 0.563-0.563 1.094-0.906 1.838-1.2 0.563-0.219 1.412-0.481 2.969-0.55 1.681-0.075 2.188-0.094 6.463-0.094zM16 0c-4.344 0-4.887 0.019-6.594 0.094-1.7 0.075-2.869 0.35-3.881 0.744-1.056 0.412-1.95 0.956-2.837 1.85-0.894 0.888-1.438 1.781-1.85 2.831-0.394 1.019-0.669 2.181-0.744 3.881-0.075 1.713-0.094 2.256-0.094 6.6s0.019 4.887 0.094 6.594c0.075 1.7 0.35 2.869 0.744 3.881 0.413 1.056 0.956 1.95 1.85 2.837 0.887 0.887 1.781 1.438 2.831 1.844 1.019 0.394 2.181 0.669 3.881 0.744 1.706 0.075 2.25 0.094 6.594 0.094s4.888-0.019 6.594-0.094c1.7-0.075 2.869-0.35 3.881-0.744 1.050-0.406 1.944-0.956 2.831-1.844s1.438-1.781 1.844-2.831c0.394-1.019 0.669-2.181 0.744-3.881 0.075-1.706 0.094-2.25 0.094-6.594s-0.019-4.887-0.094-6.594c-0.075-1.7-0.35-2.869-0.744-3.881-0.394-1.063-0.938-1.956-1.831-2.844-0.887-0.887-1.781-1.438-2.831-1.844-1.019-0.394-2.181-0.669-3.881-0.744-1.712-0.081-2.256-0.1-6.6-0.1v0z"></path>
            <path d="M16 7.781c-4.537 0-8.219 3.681-8.219 8.219s3.681 8.219 8.219 8.219 8.219-3.681 8.219-8.219c0-4.537-3.681-8.219-8.219-8.219zM16 21.331c-2.944 0-5.331-2.387-5.331-5.331s2.387-5.331 5.331-5.331c2.944 0 5.331 2.387 5.331 5.331s-2.387 5.331-5.331 5.331z"></path>
            <path d="M26.462 7.456c0 1.060-0.859 1.919-1.919 1.919s-1.919-0.859-1.919-1.919c0-1.060 0.859-1.919 1.919-1.919s1.919 0.859 1.919 1.919z"></path>
        </symbol>
        <symbol id="icon-whatsapp" viewBox="0 0 32 32">
            <path d="M27.281 4.65c-2.994-3-6.975-4.65-11.219-4.65-8.738 0-15.85 7.112-15.85 15.856 0 2.794 0.731 5.525 2.119 7.925l-2.25 8.219 8.406-2.206c2.319 1.262 4.925 1.931 7.575 1.931h0.006c0 0 0 0 0 0 8.738 0 15.856-7.113 15.856-15.856 0-4.238-1.65-8.219-4.644-11.219zM16.069 29.050v0c-2.369 0-4.688-0.637-6.713-1.837l-0.481-0.288-4.987 1.306 1.331-4.863-0.313-0.5c-1.325-2.094-2.019-4.519-2.019-7.012 0-7.269 5.912-13.181 13.188-13.181 3.519 0 6.831 1.375 9.319 3.862 2.488 2.494 3.856 5.8 3.856 9.325-0.006 7.275-5.919 13.188-13.181 13.188zM23.294 19.175c-0.394-0.2-2.344-1.156-2.706-1.288s-0.625-0.2-0.894 0.2c-0.262 0.394-1.025 1.288-1.256 1.556-0.231 0.262-0.462 0.3-0.856 0.1s-1.675-0.619-3.188-1.969c-1.175-1.050-1.975-2.35-2.206-2.744s-0.025-0.613 0.175-0.806c0.181-0.175 0.394-0.463 0.594-0.694s0.262-0.394 0.394-0.662c0.131-0.262 0.069-0.494-0.031-0.694s-0.894-2.15-1.219-2.944c-0.319-0.775-0.65-0.669-0.894-0.681-0.231-0.012-0.494-0.012-0.756-0.012s-0.694 0.1-1.056 0.494c-0.363 0.394-1.387 1.356-1.387 3.306s1.419 3.831 1.619 4.1c0.2 0.262 2.794 4.269 6.769 5.981 0.944 0.406 1.681 0.65 2.256 0.837 0.95 0.3 1.813 0.256 2.494 0.156 0.762-0.113 2.344-0.956 2.675-1.881s0.331-1.719 0.231-1.881c-0.094-0.175-0.356-0.275-0.756-0.475z"></path>
        </symbol>
        <symbol id="icon-vk" viewBox="0 0 32 32">
            <path d="M29 0h-26c-1.65 0-3 1.35-3 3v26c0 1.65 1.35 3 3 3h26c1.65 0 3-1.35 3-3v-26c0-1.65-1.35-3-3-3zM25.919 22.4l-2.925 0.044c0 0-0.631 0.125-1.456-0.444-1.094-0.75-2.125-2.706-2.931-2.45-0.813 0.256-0.788 2.012-0.788 2.012s0.006 0.375-0.181 0.575c-0.2 0.219-0.6 0.262-0.6 0.262h-1.306c0 0-2.888 0.175-5.431-2.475-2.775-2.887-5.225-8.619-5.225-8.619s-0.144-0.375 0.013-0.556c0.175-0.206 0.644-0.219 0.644-0.219l3.131-0.019c0 0 0.294 0.050 0.506 0.206 0.175 0.125 0.269 0.369 0.269 0.369s0.506 1.281 1.175 2.438c1.306 2.256 1.919 2.75 2.362 2.513 0.644-0.35 0.45-3.194 0.45-3.194s0.012-1.031-0.325-1.488c-0.262-0.356-0.756-0.463-0.969-0.488-0.175-0.025 0.113-0.431 0.488-0.619 0.563-0.275 1.556-0.294 2.731-0.281 0.913 0.006 1.181 0.069 1.538 0.15 1.081 0.262 0.712 1.269 0.712 3.681 0 0.775-0.137 1.863 0.419 2.219 0.238 0.156 0.825 0.025 2.294-2.469 0.694-1.181 1.219-2.569 1.219-2.569s0.113-0.25 0.288-0.356c0.181-0.106 0.425-0.075 0.425-0.075l3.294-0.019c0 0 0.988-0.119 1.15 0.331 0.169 0.469-0.369 1.563-1.712 3.356-2.206 2.944-2.456 2.669-0.619 4.369 1.75 1.625 2.113 2.419 2.175 2.519 0.712 1.2-0.813 1.294-0.813 1.294z"></path>
        </symbol>
        <symbol id="icon-youtube" viewBox="0 0 80 32">
            <path d="M10.75 5.294c0.007-0.027 0.011-0.046 0.012-0.056l0.033-0.236-1.48-0.008c-1.337-0.008-1.746 0-1.783 0.034-0.018 0.016-0.479 1.77-1.302 4.946-0.392 1.515-0.723 2.725-0.734 2.689s-0.481-1.766-1.044-3.843c-0.563-2.078-1.034-3.789-1.048-3.803-0.019-0.019-1.812-0.028-3.263-0.016-0.21 0.002-0.327-0.41 1.876 6.598 0.305 0.97 0.762 2.344 1.015 3.052 0.292 0.817 0.5 1.448 0.642 1.974 0.251 1.002 0.26 1.63 0.205 2.363-0.063 0.847-0.073 6.826-0.011 6.926 0.047 0.077 2.851 0.112 3.116 0.040 0.042-0.012 0.071-0.053 0.090-0.279 0.066-0.194 0.071-0.968 0.071-4.18v-4.103l0.179-0.566c0.117-0.37 0.413-1.344 0.656-2.163s0.538-1.801 0.654-2.18c1.057-3.447 2.067-6.838 2.094-7.032l0.022-0.158z"></path>
            <path d="M26.441 10.27l-0.001 0.214-0.033 0-0.019 5.906-0.018 5.726-0.458 0.467c-0.513 0.522-0.925 0.722-1.297 0.629-0.405-0.102-0.395 0.056-0.429-6.712l-0.031-6.23h-2.947v0.214h-0.034v6.759c0 7.242-0 7.237 0.367 7.965 0.293 0.579 0.719 0.861 1.45 0.958h0c0.962 0.128 2-0.308 2.962-1.244l0.418-0.407v0.701c0 0.606 0.017 0.706 0.127 0.737 0.18 0.050 2.412 0.053 2.653 0.004l0.2-0.041v-0.207l0.034-0.007v-15.472l-2.944 0.039z"></path>
            <path d="M18.965 13.323c-0.279-1.198-0.802-2.004-1.664-2.561-1.353-0.875-2.897-0.967-4.331-0.259-1.045 0.516-1.717 1.372-2.065 2.628-0.041 0.15-0.072 0.275-0.095 0.463-0.088 0.443-0.099 1.105-0.122 4.186-0.035 4.748 0.019 5.313 0.614 6.391 0.583 1.058 1.794 1.833 3.112 1.993 0.397 0.048 1.201-0.027 1.663-0.155 1.051-0.291 2.058-1.122 2.504-2.065 0.192-0.407 0.309-0.691 0.379-1.208 0.13-0.707 0.14-1.849 0.14-4.762-0-3.715-0.012-4.121-0.136-4.651zM15.604 23c-0.247 0.188-0.679 0.27-1.031 0.195-0.271-0.058-0.636-0.482-0.748-0.869-0.14-0.482-0.151-7.187-0.030-8.502 0.199-0.658 0.756-1.002 1.364-0.838 0.474 0.128 0.716 0.424 0.854 1.046 0.103 0.461 0.115 1.035 0.093 4.414-0.014 2.241-0.022 3.336-0.096 3.924-0.074 0.371-0.197 0.47-0.407 0.63z"></path>
            <path d="M71.887 16.692h1.424l-0.023-1.29c-0.022-1.183-0.039-1.319-0.198-1.64-0.249-0.507-0.617-0.731-1.201-0.731-0.701 0-1.146 0.339-1.356 1.036-0.089 0.296-0.183 2.334-0.116 2.51 0.038 0.098 0.241 0.116 1.469 0.116z"></path>
            <path d="M62.369 13.757c-0.19-0.383-0.543-0.571-0.954-0.556-0.319 0.011-0.674 0.146-1.015 0.407l-0.254 0.193v9.269l0.254 0.193c0.576 0.439 1.209 0.532 1.644 0.241 0.172-0.115 0.285-0.274 0.372-0.527 0.114-0.329 0.124-0.75 0.109-4.649-0.015-4.064-0.024-4.303-0.157-4.57z"></path>
            <path d="M80.027 9.582c-0.284-3.401-0.509-4.505-1.211-5.923-0.929-1.878-2.272-2.868-4.184-3.086-1.478-0.168-7.041-0.405-12.189-0.52-8.912-0.198-23.564 0.183-25.436 0.662-0.865 0.221-1.513 0.597-2.188 1.269-1.183 1.177-1.887 2.865-2.17 5.2-0.647 5.331-0.66 11.773-0.037 17.297 0.268 2.376 0.82 3.92 1.857 5.192 0.647 0.794 1.761 1.469 2.758 1.67 0.7 0.141 4.201 0.337 9.3 0.521 0.76 0.027 2.771 0.074 4.47 0.105 3.541 0.063 10.051 0.026 13.772-0.079 2.504-0.070 7.069-0.255 7.922-0.321 0.24-0.019 0.796-0.054 1.236-0.079 1.477-0.083 2.417-0.393 3.3-1.086 1.142-0.897 2.027-2.556 2.4-4.501 0.354-1.84 0.59-5.118 0.638-8.839 0.040-3.109-0.013-4.787-0.238-7.482zM44.54 8.35l-1.656 0.020-0.073 17.661-1.435 0.018c-1.11 0.015-1.447-0.001-1.474-0.073-0.019-0.051-0.042-4.032-0.052-8.849l-0.018-8.758-3.234-0.041v-2.76l9.557 0.039 0.041 2.721-1.656 0.020zM54.694 18.472v7.595h-2.616v-0.799c0-0.601-0.023-0.799-0.093-0.799-0.051 0-0.288 0.198-0.527 0.441-0.517 0.526-1.13 0.949-1.653 1.145-1.083 0.405-2.112 0.169-2.551-0.586-0.401-0.691-0.409-0.845-0.409-8.010v-6.58h2.614l0.020 6.196c0.019 6.088 0.022 6.2 0.168 6.448 0.193 0.329 0.488 0.417 0.956 0.288 0.276-0.076 0.464-0.21 0.911-0.654l0.563-0.561v-11.717h2.616v7.595zM64.899 24.982c-0.23 0.513-0.744 1.016-1.165 1.14-1.099 0.324-1.98 0.060-2.998-0.897-0.316-0.297-0.61-0.538-0.654-0.538-0.053 0-0.082 0.233-0.082 0.69v0.69h-2.616v-20.495h2.616v3.343c0 1.839 0.025 3.343 0.054 3.343s0.306-0.244 0.613-0.541c0.707-0.683 1.298-0.981 2.049-1.038 1.338-0.101 2.135 0.587 2.501 2.16 0.114 0.491 0.125 1.051 0.125 5.596-0 5.537-0.001 5.56-0.443 6.546zM75.968 21.943c-0.023 0.57-0.092 1.223-0.154 1.454-0.364 1.349-1.332 2.304-2.732 2.696-1.885 0.527-3.96-0.337-4.788-1.994-0.465-0.93-0.481-1.116-0.481-5.662 0-3.707 0.013-4.162 0.132-4.667 0.336-1.431 1.168-2.357 2.578-2.871 0.408-0.149 0.835-0.225 1.261-0.234 1.521-0.031 3.031 0.787 3.663 2.119 0.427 0.899 0.48 1.283 0.522 3.816l0.039 2.271-5.578 0.039-0.020 1.526c-0.029 2.153 0.116 2.815 0.697 3.207 0.489 0.329 1.24 0.305 1.649-0.055 0.383-0.337 0.491-0.698 0.529-1.753l0.034-0.927h2.694l-0.043 1.036z"></path>
        </symbol>
        <symbol id="icon-phone" viewBox="0 0 32 32">
            <path d="M22 20c-2 2-2 4-4 4s-4-2-6-4-4-4-4-6 2-2 4-4-4-8-6-8-6 6-6 6c0 4 4.109 12.109 8 16s12 8 16 8c0 0 6-4 6-6s-6-8-8-6z"></path>
        </symbol>
        <symbol id="icon-email" viewBox="0 0 32 32">
            <path d="M29 4h-26c-1.65 0-3 1.35-3 3v20c0 1.65 1.35 3 3 3h26c1.65 0 3-1.35 3-3v-20c0-1.65-1.35-3-3-3zM12.461 17.199l-8.461 6.59v-15.676l8.461 9.086zM5.512 8h20.976l-10.488 7.875-10.488-7.875zM12.79 17.553l3.21 3.447 3.21-3.447 6.58 8.447h-19.579l6.58-8.447zM19.539 17.199l8.461-9.086v15.676l-8.461-6.59z"></path>
        </symbol>
        <symbol id="icon-checkmark" viewBox="0 0 32 32">
          <path d="M12.42 28.678l-12.433-12.238 6.168-6.071 6.265 6.167 13.426-13.214 6.168 6.071-19.594 19.285zM3.372 16.441l9.048 8.905 16.208-15.953-2.782-2.739-13.426 13.214-6.265-6.167-2.782 2.739z"></path>
        </symbol>
    </defs>
</svg>
