<svg width="31" height="39" viewBox="0 0 31 39" fill="none" xmlns="http://www.w3.org/2000/svg">
<path d="M15.3337 23.2916C19.5618 23.2916 23.0003 19.8531 23.0003 15.6249C23.0003 11.3968 19.5618 7.95825 15.3337 7.95825C11.1055 7.95825 7.66699 11.3968 7.66699 15.6249C7.66699 19.8531 11.1055 23.2916 15.3337 23.2916ZM15.3337 11.7916C17.4477 11.7916 19.167 13.5108 19.167 15.6249C19.167 17.739 17.4477 19.4583 15.3337 19.4583C13.2196 19.4583 11.5003 17.739 11.5003 15.6249C11.5003 13.5108 13.2196 11.7916 15.3337 11.7916Z" fill="white"/>
<path d="M14.2218 38.2683C14.5462 38.5 14.9349 38.6245 15.3335 38.6245C15.7321 38.6245 16.1208 38.5 16.4452 38.2683C17.0278 37.8563 30.7224 27.9682 30.6668 15.6248C30.6668 7.17042 23.7879 0.291504 15.3335 0.291504C6.87909 0.291504 0.000168739 7.17042 0.000168739 15.6153C-0.0554146 27.9682 13.6392 37.8563 14.2218 38.2683ZM15.3335 4.12484C21.6758 4.12484 26.8335 9.28259 26.8335 15.6344C26.8738 24.1406 18.4232 31.7785 15.3335 34.2836C12.2458 31.7766 3.79325 24.1368 3.8335 15.6248C3.8335 9.28259 8.99125 4.12484 15.3335 4.12484Z" fill="white"/>
</svg>
