<svg width="59" height="114" viewBox="0 0 59 114" fill="none" xmlns="http://www.w3.org/2000/svg">
<path d="M33 112.88L33 111.76L28.59 111.76L28.59 106.3L33 106.3L33 105.18L23.2 105.18L23.2 106.3L27.54 106.3L27.54 111.76L23.2 111.76L23.2 112.88L33 112.88ZM33.14 100.911C33.14 99.3705 32.16 98.7405 32.16 98.7405L32.16 98.6705L33 98.5305L33 97.6205L28.52 97.6205C26.84 97.6205 25.86 98.6705 25.86 100.351C25.86 102.101 26.91 103.081 28.03 103.151L28.03 102.101C27.4 102.031 26.84 101.401 26.84 100.351C26.84 99.3005 27.47 98.6705 28.52 98.6705L28.73 98.6705L28.73 100.561C28.73 102.521 29.64 103.361 30.97 103.361C32.23 103.361 33.14 102.381 33.14 100.911ZM32.16 100.911C32.16 101.821 31.67 102.311 30.97 102.311C30.27 102.311 29.71 101.821 29.71 100.561L29.71 98.6705L29.99 98.6705C31.32 98.6705 32.16 99.5105 32.16 100.911ZM33 92.4302L33 88.6502C33 87.5302 32.16 86.6902 31.012 86.6902C29.85 86.6902 29.5 87.6702 29.5 87.6702L29.43 87.6702C29.43 87.6702 29.01 86.8302 27.96 86.8302C26.77 86.8302 26 87.6002 26 88.7902L26 92.4302L33 92.4302ZM32.09 91.3802L29.92 91.3802L29.92 88.7902C29.92 88.2302 30.34 87.7402 31.012 87.7402C31.67 87.7402 32.09 88.2302 32.09 88.7902L32.09 91.3802ZM29.01 91.3802L26.91 91.3802L26.91 88.9302C26.91 88.3702 27.33 87.8802 27.96 87.8802C28.59 87.8802 29.01 88.3702 29.01 88.9302L29.01 91.3802ZM33.14 82.2167C33.14 80.7467 32.37 79.6967 31.04 79.2067L31.04 80.3267C31.74 80.6767 32.16 81.3767 32.16 82.2167C32.16 83.3927 31.32 84.3867 29.99 84.5267L29.99 79.0667C29.99 79.0667 29.78 78.9967 29.22 78.9967C27.26 78.9967 25.86 80.3967 25.86 82.2167C25.86 84.1067 27.33 85.5767 29.5 85.5767C31.67 85.5767 33.14 84.1067 33.14 82.2167ZM29.01 84.5267C27.75 84.3867 26.84 83.4767 26.84 82.2167C26.84 81.0267 27.75 80.1167 29.01 80.0467L29.01 84.5267ZM35.8 77.4595L35.8 76.4095L32.02 76.4095L32.02 76.3395C32.72 75.7795 33.14 75.0795 33.14 74.0995C33.14 72.2795 31.67 70.8795 29.5 70.8795C27.33 70.8795 25.86 72.2795 25.86 74.0995C25.86 75.0795 26.28 75.7795 26.98 76.3395L26.98 76.4095L26 76.5495L26 77.4595L35.8 77.4595ZM32.16 74.1695C32.16 75.3595 31.11 76.4095 29.5 76.4095C27.89 76.4095 26.84 75.3595 26.84 74.1695C26.84 72.9795 27.89 71.9295 29.5 71.9295C31.11 71.9295 32.16 72.9795 32.16 74.1695ZM33 70.4518L33 69.1918L30.2 67.3718L30.2 67.0918L33 65.2718L33 64.0118L29.43 66.3918L26 64.0818L26 65.3418L28.66 67.0918L28.66 67.3718L26 69.1218L26 70.3818L29.43 68.0718L33 70.4518Z" fill="#F9F9F9"/>
<g filter="url(#filter0_d)">
<circle cx="29.5" cy="25.5" r="25.5" fill="url(#paint0_linear)"/>
</g>
<path d="M24.3263 21.4363C24.15 21.6108 23.9119 21.7087 23.6638 21.7087C23.4157 21.7087 23.1777 21.6108 23.0014 21.4363C22.9143 21.3506 22.8452 21.2484 22.798 21.1357C22.7509 21.023 22.7266 20.9021 22.7266 20.7799C22.7266 20.6578 22.7509 20.5368 22.798 20.4241C22.8452 20.3115 22.9143 20.2093 23.0014 20.1236L28.2955 14.9351C28.4722 14.7608 28.7104 14.6631 28.9586 14.6631C29.2068 14.6631 29.445 14.7608 29.6217 14.9351L34.9159 20.1236C35.0029 20.2093 35.072 20.3115 35.1192 20.4241C35.1664 20.5368 35.1907 20.6578 35.1907 20.7799C35.1907 20.9021 35.1664 21.023 35.1192 21.1357C35.072 21.2484 35.0029 21.3506 34.9159 21.4363C34.7392 21.6106 34.5009 21.7083 34.2527 21.7083C34.0045 21.7083 33.7663 21.6106 33.5896 21.4363L28.9566 17.1812L24.3263 21.4363Z" fill="#F9F9F9"/>
<path d="M24.3263 28.2097C24.15 28.3843 23.9119 28.4822 23.6638 28.4822C23.4157 28.4822 23.1777 28.3843 23.0014 28.2097C22.9143 28.124 22.8452 28.0218 22.798 27.9091C22.7509 27.7965 22.7266 27.6755 22.7266 27.5534C22.7266 27.4312 22.7509 27.3103 22.798 27.1976C22.8452 27.0849 22.9143 26.9827 23.0014 26.897L28.2955 21.7086C28.4722 21.5343 28.7104 21.4365 28.9586 21.4365C29.2068 21.4365 29.445 21.5343 29.6217 21.7086L34.9159 26.897C35.0029 26.9827 35.072 27.0849 35.1192 27.1976C35.1664 27.3103 35.1907 27.4312 35.1907 27.5534C35.1907 27.6755 35.1664 27.7965 35.1192 27.9091C35.072 28.0218 35.0029 28.124 34.9159 28.2097C34.7392 28.384 34.5009 28.4818 34.2527 28.4818C34.0045 28.4818 33.7663 28.384 33.5896 28.2097L28.9566 23.9546L24.3263 28.2097Z" fill="#F9F9F9"/>
<path d="M24.3263 34.9831C24.15 35.1577 23.9119 35.2556 23.6638 35.2556C23.4157 35.2556 23.1777 35.1577 23.0014 34.9831C22.9143 34.8974 22.8452 34.7953 22.798 34.6826C22.7509 34.5699 22.7266 34.449 22.7266 34.3268C22.7266 34.2046 22.7509 34.0837 22.798 33.971C22.8452 33.8583 22.9143 33.7562 23.0014 33.6705L28.2955 28.482C28.4722 28.3077 28.7104 28.21 28.9586 28.21C29.2068 28.21 29.445 28.3077 29.6217 28.482L34.9159 33.6705C35.0029 33.7562 35.072 33.8583 35.1192 33.971C35.1664 34.0837 35.1907 34.2046 35.1907 34.3268C35.1907 34.449 35.1664 34.5699 35.1192 34.6826C35.072 34.7953 35.0029 34.8974 34.9159 34.9831C34.7392 35.1575 34.5009 35.2552 34.2527 35.2552C34.0045 35.2552 33.7663 35.1575 33.5896 34.9831L28.9566 30.7281L24.3263 34.9831Z" fill="#F9F9F9"/>
<defs>
<filter id="filter0_d" x="0" y="0" width="59" height="59" filterUnits="userSpaceOnUse" color-interpolation-filters="sRGB">
<feFlood flood-opacity="0" result="BackgroundImageFix"/>
<feColorMatrix in="SourceAlpha" type="matrix" values="0 0 0 0 0 0 0 0 0 0 0 0 0 0 0 0 0 0 127 0"/>
<feOffset dy="4"/>
<feGaussianBlur stdDeviation="2"/>
<feColorMatrix type="matrix" values="0 0 0 0 0 0 0 0 0 0 0 0 0 0 0 0 0 0 0.25 0"/>
<feBlend mode="normal" in2="BackgroundImageFix" result="effect1_dropShadow"/>
<feBlend mode="normal" in="SourceGraphic" in2="effect1_dropShadow" result="shape"/>
</filter>
<linearGradient id="paint0_linear" x1="30" y1="51" x2="30" y2="-5.42602e-07" gradientUnits="userSpaceOnUse">
<stop stop-color="#233377"/>
<stop offset="1" stop-color="#377BDC"/>
</linearGradient>
</defs>
</svg>
