<svg width="245" height="56" viewBox="0 0 245 56" fill="none" xmlns="http://www.w3.org/2000/svg">
<path fill-rule="evenodd" clip-rule="evenodd" d="M134.751 4.09717L109.891 4.1067C109.563 13.9778 109.826 24.2402 109.832 34.0974C109.834 39.3906 109.319 42.6301 112.162 46.6033C117.161 53.591 127.509 53.366 132.211 46.8811C135.258 42.6785 134.808 39.9549 134.809 34.2908C134.81 29.2527 134.805 24.2146 134.808 19.1764C134.811 14.5868 135.148 8.50793 134.751 4.09717Z" fill="#E6EFFF"/>
<path fill-rule="evenodd" clip-rule="evenodd" d="M134.751 4.0974C135.147 8.50816 134.811 14.5871 134.808 19.1767C134.805 24.2148 134.81 29.2529 134.809 34.2911C134.807 39.9551 135.258 42.6787 132.21 46.8813C127.509 53.3663 117.16 53.5913 112.162 46.6035C109.319 42.6303 109.834 39.3908 109.831 34.0976C109.825 24.2404 109.563 13.978 109.89 4.10693L134.751 4.0974ZM106.253 4.44994V39.5227C106.253 53.7408 123.486 60.8619 133.915 50.5203C136.726 47.733 138.42 43.8866 138.42 38.3603V4.44994C138.42 3.94862 135.045 0.574219 134.544 0.574219H124.081C122.945 0.574219 122.702 1.36212 122.143 1.73664C121.955 1.03596 121.466 0.574219 120.593 0.574219H110.129C109.628 0.574219 106.253 3.94862 106.253 4.44994Z" fill="#2F80ED"/>
<path fill-rule="evenodd" clip-rule="evenodd" d="M115.91 34.2574C115.416 34.8819 114.713 35.4037 114.265 36.114C112.641 38.6953 112.88 41.9451 114.433 44.3169C118.434 50.4251 128.658 49.9054 131.119 41.7025C132.712 36.3925 129.734 32.7176 126.702 29.5403L123.202 26.0604C121.724 24.0712 119.743 23.0935 118.316 20.6866C114.842 14.8261 121.479 9.00956 126.731 12.6515C130.583 15.3223 128.398 21.3609 124.875 20.1457L125.238 19.7528C125.71 19.2969 126.746 18.6241 126.238 16.6884C125.909 15.4329 125.002 14.6253 123.498 14.5974C120.05 14.5344 120.15 18.3104 121.73 20.1713L127.847 26.2546C128.701 26.9758 130.469 29.7712 131.056 30.09C132.203 27.5834 131.335 24.8547 129.314 23.0569L128.687 22.4053C131.497 21.0743 132.263 15.6763 130.134 12.5496C129.714 11.9325 128.897 11.1526 128.455 10.7246C124.98 7.36194 115.882 7.09736 113.464 15.345C111.024 23.6622 120.314 29.0207 124.463 33.9115C125.232 34.8181 125.43 34.7712 126.338 36.284C128.415 39.7441 126.731 44.0655 123.117 45.14C120.624 45.8817 118.227 45.0835 116.868 43.2556C113.898 39.2619 117.759 35.8516 119.73 36.8102C119.377 37.2984 118.013 37.903 118.327 40.0476C118.977 44.492 127.023 42.0235 122.803 36.7355C121.931 35.6419 116.699 30.8552 115.715 29.4832L113.617 26.7933C112.04 29.3989 114.021 33.5282 115.91 34.2574Z" fill="#2F80ED"/>
<path d="M119.377 7.07305H119.088V5.05676C119.088 5.05237 119.088 5.04797 119.088 5.0443C119.084 4.95635 119.039 4.9351 118.968 4.9351H118.568C118.498 4.9351 118.452 4.95635 118.448 5.0443C118.448 5.35653 118.267 5.39391 118.189 5.39391H118.098C118.002 5.39391 117.978 5.43495 117.978 5.51338V5.84759C117.978 5.92602 118.002 5.96706 118.098 5.96706H118.448V7.07305H118.098C118.002 7.07305 117.978 7.11849 117.978 7.19325V7.53186C117.978 7.60589 118.002 7.65133 118.098 7.65133H119.377C119.472 7.65133 119.497 7.60589 119.497 7.53186V7.19325C119.497 7.11849 119.472 7.07305 119.377 7.07305ZM121.841 5.83074C121.841 5.23706 121.288 4.87793 120.777 4.87793C120.194 4.87793 119.723 5.33161 119.723 5.88864C119.723 6.3841 120.145 6.76375 120.619 6.76375C120.669 6.76375 120.719 6.75569 120.768 6.74763L120.215 7.52306C120.173 7.5773 120.194 7.65133 120.269 7.65133H120.793C120.884 7.65133 120.941 7.61835 120.991 7.53552L121.503 6.73517C121.61 6.57026 121.713 6.40095 121.775 6.21919C121.825 6.066 121.841 5.9546 121.841 5.83074ZM121.213 5.86005C121.213 6.09092 121.024 6.27269 120.788 6.27269C120.553 6.27269 120.36 6.09092 120.36 5.86005C120.36 5.62918 120.553 5.44302 120.788 5.44302C121.024 5.44302 121.213 5.62918 121.213 5.86005ZM123.508 6.05941L124.024 5.50898C124.057 5.46794 124.07 5.44302 124.07 5.38951V5.0553C124.07 4.98054 124.045 4.9351 123.95 4.9351H122.374C122.278 4.9351 122.253 4.98054 122.253 5.0553V5.38951C122.253 5.45987 122.278 5.50898 122.374 5.50898H123.269L122.835 5.96413C122.802 6.00151 122.786 6.04328 122.786 6.10485V6.36944C122.786 6.46545 122.802 6.49037 122.898 6.49037H123.083C123.368 6.49037 123.521 6.59738 123.521 6.81652C123.521 7.04007 123.306 7.14341 123.133 7.14341C122.997 7.14341 122.766 7.09797 122.703 6.89934C122.687 6.82972 122.67 6.80919 122.601 6.80919H122.233C122.142 6.80919 122.118 6.82605 122.118 6.93306C122.118 7.37501 122.588 7.71289 123.108 7.71289C123.665 7.70923 124.136 7.40799 124.136 6.81359C124.136 6.38703 123.798 6.1261 123.508 6.05941ZM126.576 6.54094H126.328V5.0553C126.328 4.96002 126.282 4.9351 126.208 4.9351H125.799C125.741 4.9351 125.7 4.98054 125.675 5.00986L124.491 6.51602C124.449 6.57392 124.429 6.60691 124.429 6.66041V6.99902C124.429 7.07305 124.454 7.11849 124.548 7.11849H125.7V7.53186C125.7 7.62641 125.746 7.65133 125.82 7.65133H126.208C126.282 7.65133 126.328 7.62641 126.328 7.53186V7.11849H126.576C126.67 7.11849 126.695 7.07305 126.695 6.99902V6.66041C126.695 6.58638 126.67 6.54094 126.576 6.54094ZM125.7 6.54094H125.106L125.7 5.76697V6.54094Z" fill="#2F80ED"/>
<path d="M152.49 32.6047V39.5888C152.49 40.7072 152.693 41.4563 153.104 41.8359C153.514 42.2134 154.068 42.4032 154.767 42.4032C155.296 42.4032 155.772 42.3043 156.196 42.1057C156.623 41.9048 156.956 41.6073 157.199 41.2056C157.441 40.8062 157.562 40.1231 157.562 39.1622V33.4498C157.562 33.0811 157.537 32.8466 157.49 32.7506C157.441 32.6538 157.213 32.6047 156.802 32.6047H156.058V32.0755H159.496V32.6047H158.994C158.595 32.6047 158.35 32.6516 158.259 32.7447C158.168 32.8385 158.124 33.0972 158.124 33.5165V39.1175C158.124 39.8284 158.055 40.4507 157.918 40.985C157.78 41.5222 157.419 41.9986 156.83 42.4172C156.24 42.8386 155.331 43.0475 154.106 43.0475C153.461 43.0475 152.833 42.9734 152.222 42.8247C151.611 42.6788 151.112 42.4142 150.724 42.0397C150.338 41.6622 150.094 41.2767 149.994 40.8802C149.895 40.4866 149.845 40.0241 149.845 39.4979V32.6047H148.425V32.0755H153.977V32.6047H152.49ZM163.946 32.0755L168.239 38.4542V33.7862C168.239 33.2959 168.19 32.9763 168.094 32.8275C167.997 32.6787 167.741 32.6047 167.328 32.6047H166.818V32.0755H170.107V32.6047H169.727C169.314 32.6047 169.057 32.6648 168.956 32.7894C168.854 32.9133 168.802 33.161 168.802 33.5326V43.0475H168.22L161.812 33.5297V41.3456C161.812 41.781 161.859 42.0617 161.95 42.1855C162.04 42.3094 162.291 42.3702 162.704 42.3702H163.332V42.8994H159.911V42.3702H160.339C160.773 42.3702 161.035 42.2984 161.121 42.1526C161.206 42.0067 161.25 41.6212 161.25 40.9989V33.5326C161.25 33.1251 161.211 32.8664 161.135 32.7616C161.055 32.6568 160.828 32.6047 160.451 32.6047H159.862V32.0755H163.946ZM174.733 32.6047V42.3702H176.204V42.8994H170.668V42.3702H172.09V32.6047H170.668V32.0755H176.204V32.6047H174.733ZM183.103 39.2472L184.957 33.7891C185.114 33.3809 185.191 33.1082 185.191 32.9682C185.191 32.7257 184.937 32.6047 184.425 32.6047H183.673V32.0755H187.011V32.6047H186.648C186.309 32.6047 186.091 32.6538 185.998 32.7535C185.901 32.8524 185.777 33.1222 185.62 33.5656L182.351 43.0973H181.828L177.652 32.6047H176.75V32.0755H181.624V32.6047H180.46L183.103 39.2472ZM191.67 32.6047V37.1818H192.018C193.141 37.1818 193.792 36.5427 193.967 35.2652H194.497V39.6936H193.967C193.877 38.3714 193.227 37.7103 192.018 37.7103H191.67V42.3702H193.519C195.147 42.3702 196.209 41.3625 196.711 39.3462H197.272L197.041 42.8994H187.655V42.3702H189.027V32.6047H187.655V32.0755H196.711L196.86 35.0996H196.33C195.992 34.0779 195.57 33.4058 195.067 33.0841C194.563 32.7645 193.899 32.6047 193.075 32.6047H191.67ZM202.18 37.3797V42.3702H203.585V42.8994H198.165V42.3702H199.536V32.6047H198.165V32.0755H203.585C205.323 32.0755 206.509 32.3431 207.143 32.8744C207.779 33.4087 208.096 33.979 208.096 34.5873C208.096 35.2345 207.807 35.7856 207.225 36.243C206.644 36.6996 205.774 37.003 204.612 37.1489V37.1789C205.488 37.3995 206.141 37.6912 206.573 38.0548C207.005 38.4183 207.275 38.8207 207.385 39.2612C207.496 39.7017 207.553 40.2279 207.562 40.8362C207.57 41.4475 207.622 41.8249 207.716 41.9708C207.812 42.1166 207.985 42.1885 208.239 42.1885C208.52 42.1885 208.823 42.1005 209.154 41.9239V42.5359C208.625 42.8107 208.04 42.9485 207.399 42.9485C206.556 42.9485 205.882 42.7396 205.375 42.3182C204.868 41.8997 204.598 41.1367 204.563 40.0351C204.527 38.9306 204.383 38.2145 204.132 37.8811C203.882 37.5483 203.425 37.3797 202.756 37.3797H202.18ZM202.18 32.6047V36.8513H203.205C203.913 36.8513 204.403 36.7216 204.678 36.4599C204.95 36.1983 205.088 35.6039 205.088 34.6701C205.088 33.7774 204.959 33.2101 204.703 32.9682C204.444 32.7257 203.995 32.6047 203.356 32.6047H202.18ZM216.245 32.1254L216.377 35.0336H215.732C215.394 34.075 215.008 33.4058 214.573 33.0261C214.141 32.6458 213.618 32.4559 213.006 32.4559C212.483 32.4559 212.053 32.6208 211.715 32.9485C211.376 33.2768 211.205 33.6565 211.205 34.0889C211.205 34.6203 211.381 34.9867 211.737 35.1876C212.089 35.3862 212.7 35.576 213.565 35.7607C214.895 36.0443 215.787 36.4709 216.243 37.0441C216.697 37.6194 216.923 38.3465 216.923 39.2282C216.923 40.2689 216.622 41.1638 216.022 41.9188C215.422 42.6707 214.579 43.0475 213.496 43.0475C212.725 43.0475 212.028 42.8056 211.409 42.3182C211.108 42.5549 210.836 42.7887 210.594 43.0145H210.065V39.8585H210.676C211.153 41.6322 212.081 42.519 213.455 42.519C214.182 42.519 214.742 42.3072 215.129 41.8828C215.521 41.4585 215.716 40.9821 215.716 40.4566C215.716 40.159 215.631 39.8944 215.458 39.6577C215.287 39.4209 215.085 39.2333 214.854 39.0933C214.626 38.9526 214.001 38.776 212.979 38.5642C211.957 38.3553 211.208 37.9609 210.732 37.3856C210.255 36.8103 210.016 36.0942 210.016 35.2315C210.016 34.3095 210.307 33.5275 210.889 32.8854C211.472 32.2463 212.197 31.9268 213.067 31.9268C213.728 31.9268 214.386 32.1584 215.038 32.6186C215.248 32.494 215.474 32.3291 215.716 32.1254H216.245ZM221.915 32.6047V42.3702H223.386V42.8994H217.851V42.3702H219.272V32.6047H217.851V32.0755H223.386V32.6047H221.915ZM224.146 32.0755H233.102L233.169 35.6119H232.673C232.276 33.6074 231.45 32.6047 230.197 32.6047H229.946V42.3702H231.582V42.8994H225.667V42.3702H227.302V32.6047H227.06C225.807 32.6047 224.978 33.6074 224.576 35.6119H224.081L224.146 32.0755ZM233.849 32.0755H238.905V32.6047H237.652L240.097 37.1569L241.946 33.5135C241.973 33.4747 242.02 33.3728 242.091 33.2021C242.16 33.0342 242.196 32.9184 242.196 32.8524C242.196 32.6875 242.031 32.6047 241.703 32.6047H241.268V32.0755H244.027V32.6047C243.584 32.6047 243.284 32.6568 243.13 32.7616C242.972 32.8664 242.791 33.1141 242.587 33.5106L240.343 37.8561V42.3702H242.012V42.8994H236.03V42.3702H237.699V37.9939L234.622 32.6047H233.849V32.0755Z" fill="#333333"/>
<path d="M156.177 14.0571L156.334 17.5114H155.569C155.167 16.3731 154.708 15.5786 154.192 15.1272C153.678 14.6757 153.056 14.4499 152.33 14.4499C151.709 14.4499 151.198 14.6464 150.796 15.0355C150.394 15.4247 150.191 15.8762 150.191 16.3893C150.191 17.021 150.4 17.4557 150.822 17.6946C151.241 17.9299 151.967 18.1556 152.994 18.3748C154.574 18.7119 155.634 19.2191 156.174 19.8993C156.714 20.5831 156.982 21.4465 156.982 22.4931C156.982 23.7295 156.625 24.793 155.912 25.6894C155.199 26.5821 154.198 27.0306 152.913 27.0306C151.997 27.0306 151.169 26.7426 150.433 26.1636C150.076 26.445 149.752 26.7228 149.465 26.9911H148.837V23.2421H149.563C150.129 25.3493 151.231 26.4025 152.864 26.4025C153.727 26.4025 154.391 26.1504 154.852 25.6469C155.317 25.1426 155.549 24.5768 155.549 23.9523C155.549 23.5991 155.448 23.2846 155.241 23.0039C155.039 22.7225 154.8 22.4997 154.525 22.3333C154.254 22.1662 153.511 21.9566 152.298 21.7052C151.084 21.4567 150.194 20.9884 149.629 20.3053C149.063 19.6215 148.778 18.7705 148.778 17.7474C148.778 16.6509 149.125 15.7223 149.815 14.9601C150.508 14.2015 151.368 13.8218 152.403 13.8218C153.188 13.8218 153.969 14.0967 154.744 14.6427C154.993 14.4954 155.261 14.2997 155.549 14.0571H156.177ZM165.356 23.2619H161.332L160.796 24.5805C160.583 25.1067 160.475 25.4864 160.475 25.7216C160.475 26.0588 160.792 26.2259 161.424 26.2259H162.127V26.8533H157.986V26.2259H158.359C158.852 26.2259 159.183 26.1438 159.357 25.9767C159.53 25.8103 159.739 25.4241 159.988 24.8157L164.479 13.7632H165.038L169.765 26.2259H171.096V26.8533H164.777V26.2259H166.481L165.356 23.2619ZM161.604 22.595H165.104L163.413 18.1395L161.604 22.595ZM170.985 13.9985H181.622L181.701 18.1981H181.112C180.641 15.8168 179.659 14.6266 178.172 14.6266H177.874V26.2259H179.817V26.8533H172.79V26.2259H174.733V14.6266H174.445C172.958 14.6266 171.973 15.8168 171.495 18.1981H170.907L170.985 13.9985ZM189.103 26.8533H182.489V26.2259H184.118V14.6266H182.489V13.9985H189.306C190.883 13.9985 192.014 14.3026 192.695 14.9146C193.375 15.5259 193.716 16.2258 193.716 17.0174C193.716 17.6851 193.454 18.3095 192.931 18.8922C192.404 19.4771 191.491 19.8604 190.186 20.04V20.0759C192.852 20.4226 194.186 21.4956 194.186 23.2978C194.186 24.3708 193.758 25.2313 192.901 25.8821C192.044 26.53 190.778 26.8533 189.103 26.8533ZM187.258 14.6266V19.7688H187.997C188.946 19.7688 189.577 19.6376 189.898 19.3759C190.219 19.1143 190.379 18.3814 190.379 17.1742C190.379 16.1635 190.248 15.487 189.99 15.1433C189.731 14.7995 189.159 14.6266 188.276 14.6266H187.258ZM188.217 20.3969H187.258V26.2259H187.997C189.149 26.2259 189.885 26.039 190.209 25.6696C190.532 25.3002 190.693 24.4397 190.693 23.0919C190.693 22.0159 190.503 21.2991 190.121 20.9393C189.741 20.5765 189.106 20.3969 188.217 20.3969ZM201.749 23.2619H197.725L197.189 24.5805C196.976 25.1067 196.869 25.4864 196.869 25.7216C196.869 26.0588 197.186 26.2259 197.817 26.2259H198.521V26.8533H194.38V26.2259H194.752C195.246 26.2259 195.576 26.1438 195.75 25.9767C195.923 25.8103 196.133 25.4241 196.381 24.8157L200.873 13.7632H201.432L206.158 26.2259H207.489V26.8533H201.17V26.2259H202.874L201.749 23.2619ZM197.997 22.595H201.497L199.806 18.1395L197.997 22.595ZM205.985 13.9985H211.99V14.6266H210.503L213.407 20.0334L215.602 15.7062C215.634 15.66 215.69 15.5391 215.775 15.336C215.857 15.1367 215.9 14.9996 215.9 14.9212C215.9 14.7248 215.703 14.6266 215.314 14.6266H214.797V13.9985H218.074V14.6266C217.548 14.6266 217.191 14.6889 217.009 14.8127C216.822 14.9373 216.606 15.232 216.364 15.7025L213.698 20.8645V26.2259H215.681V26.8533H208.576V26.2259H210.558V21.028L206.904 14.6266H205.985V13.9985ZM223.59 14.6266V20.0627H224.002C225.336 20.0627 226.108 19.3041 226.318 17.7862H226.946V23.0464H226.318C226.21 21.4758 225.438 20.6908 224.002 20.6908H223.59V26.2259H225.785C227.718 26.2259 228.98 25.0283 229.576 22.6338H230.243L229.968 26.8533H218.821V26.2259H220.45V14.6266H218.821V13.9985H229.576L229.752 17.5898H229.124C228.722 16.3768 228.222 15.5786 227.623 15.1953C227.024 14.8164 226.236 14.6266 225.258 14.6266H223.59ZM238.771 22.5165L240.972 16.0331C241.159 15.5486 241.25 15.2254 241.25 15.0583C241.25 14.7702 240.949 14.6266 240.341 14.6266H239.447V13.9985H243.412V14.6266H242.98C242.578 14.6266 242.32 14.6852 242.208 14.8032C242.094 14.9212 241.947 15.2415 241.76 15.7677L237.877 27.0893H237.256L232.297 14.6266H231.224V13.9985H237.014V14.6266H235.63L238.771 22.5165Z" fill="#333333"/>
<path d="M5.90813 35.0548H8.54593V35.2578C8.27328 35.282 8.05194 35.381 7.87897 35.5583C7.706 35.735 7.48172 36.097 7.20688 36.646L4.7479 41.476C4.36238 42.2302 4.03037 42.697 3.74966 42.8766C3.46895 43.0576 3.13473 43.1471 2.74701 43.1471C2.32558 43.1471 2.00529 43.0313 1.79054 42.8026C1.57579 42.5717 1.46805 42.3152 1.46805 42.0308C1.46805 41.8021 1.54574 41.6116 1.69893 41.4621C1.85211 41.3125 2.039 41.2371 2.25962 41.2371C2.4707 41.2371 2.62388 41.2913 2.72136 41.4005C2.81664 41.5097 2.88627 41.7047 2.92438 41.989C2.96982 42.3233 3.10688 42.4904 3.33555 42.4904C3.60674 42.4904 3.86473 42.2302 4.11172 41.7091L4.22679 41.484L1.39843 36.3382C1.15803 35.9006 0.949141 35.6177 0.771773 35.4887C0.594404 35.3575 0.33788 35.282 0 35.2578V35.0548H3.93875V35.2578H3.78777C3.32822 35.2578 3.09882 35.3692 3.09882 35.5898C3.09882 35.6734 3.14133 35.7965 3.22635 35.9578L5.20745 39.5601L6.70555 36.6167C6.91224 36.207 7.01411 35.9123 7.01411 35.735C7.01411 35.6016 6.95402 35.4924 6.83455 35.4052C6.71361 35.3194 6.40505 35.2696 5.90813 35.2578V35.0548ZM11.9093 39.1607V41.6189C11.9093 42.0271 11.9313 42.2815 11.9753 42.3834C12.0207 42.4845 12.1065 42.5739 12.2355 42.6494C12.3645 42.7271 12.5397 42.7652 12.7588 42.7652H13.019V42.9675H8.9014V42.7652H9.16233C9.391 42.7652 9.5757 42.7234 9.71495 42.6413C9.81683 42.5856 9.89452 42.4926 9.94802 42.3592C9.9898 42.2653 10.0118 42.0191 10.0118 41.6189V36.4034C10.0118 35.9959 9.9898 35.7408 9.94802 35.6397C9.90405 35.5385 9.8183 35.4484 9.6893 35.3729C9.5603 35.2959 9.38514 35.2578 9.16233 35.2578H8.9014V35.0548H13.019V35.2578H12.7588C12.5316 35.2578 12.3491 35.2996 12.2098 35.381C12.1102 35.4367 12.0303 35.5305 11.9731 35.6639C11.9313 35.757 11.9093 36.004 11.9093 36.4034V38.6476H14.7142V36.4034C14.7142 35.9959 14.6923 35.7408 14.6505 35.6397C14.6065 35.5385 14.5208 35.4484 14.3881 35.3729C14.2562 35.2959 14.0817 35.2578 13.8604 35.2578H13.6039V35.0548H17.7215V35.2578H17.4649C17.2341 35.2578 17.0494 35.2996 16.9138 35.381C16.8126 35.4367 16.7327 35.5305 16.6756 35.6639C16.6338 35.757 16.6118 36.004 16.6118 36.4034V41.6189C16.6118 42.0271 16.6338 42.2815 16.6756 42.3834C16.7188 42.4845 16.8046 42.5739 16.938 42.6494C17.0691 42.7271 17.2443 42.7652 17.4649 42.7652H17.7215V42.9675H13.6039V42.7652H13.8604C14.0913 42.7652 14.2767 42.7234 14.4116 42.6413C14.5134 42.5856 14.5926 42.4926 14.6505 42.3592C14.6923 42.2653 14.7142 42.0191 14.7142 41.6189V39.1607H11.9093ZM23.9741 36.3521C23.9697 35.9241 23.9184 35.6338 23.8209 35.4828C23.7212 35.3333 23.4742 35.2578 23.0784 35.2578H22.816V35.0548H27.0531V35.2578H26.7782C26.4125 35.2578 26.1677 35.3297 26.0504 35.4704C25.931 35.6118 25.8716 35.9219 25.8716 36.4034V41.6189C25.8716 42.1063 25.931 42.4185 26.0526 42.5578C26.1736 42.6956 26.4162 42.7652 26.7782 42.7652H27.0531V42.9675H22.816V42.7652H23.0784C23.4463 42.7652 23.6875 42.6912 23.8026 42.5461C23.9162 42.3987 23.9741 42.0909 23.9741 41.6189V37.3064L21.1809 41.6988C21.1809 42.0785 21.2263 42.3489 21.3201 42.516C21.4139 42.6817 21.6661 42.7652 22.0758 42.7652H22.3506V42.9675H18.1136V42.7652H18.376C18.7461 42.7652 18.9909 42.6912 19.1082 42.5461C19.2254 42.3987 19.2833 42.0909 19.2833 41.6189V36.4034C19.2833 35.9219 19.2357 35.6118 19.1419 35.4704C19.0488 35.3297 18.7937 35.2578 18.376 35.2578H18.1136V35.0548H22.3506V35.2578H22.0758C21.7203 35.2578 21.4814 35.3355 21.3619 35.4902C21.2402 35.6456 21.1809 35.9497 21.1809 36.4034V40.746L23.9741 36.3521ZM32.5156 38.7686C33.269 38.9437 33.8004 39.1563 34.1046 39.4055C34.5421 39.7595 34.7613 40.219 34.7613 40.7834C34.7613 41.3785 34.5223 41.8718 34.043 42.2617C33.4559 42.733 32.6028 42.9675 31.4851 42.9675H27.4665V42.7652C27.8329 42.7652 28.0814 42.7308 28.2104 42.6619C28.3423 42.5937 28.4332 42.5043 28.4852 42.3951C28.5387 42.2859 28.5651 42.0147 28.5651 41.5837V36.4393C28.5651 36.0076 28.5387 35.7372 28.4852 35.6258C28.4332 35.5144 28.3401 35.4249 28.2089 35.3575C28.0755 35.2915 27.8285 35.2578 27.4665 35.2578V35.0548H31.2579C32.1653 35.0548 32.8058 35.1362 33.184 35.2974C33.5615 35.4587 33.8583 35.6991 34.0767 36.0193C34.2937 36.3396 34.4029 36.6819 34.4029 37.0418C34.4029 37.4236 34.2636 37.7622 33.9851 38.0605C33.7066 38.3566 33.2177 38.5934 32.5156 38.7686ZM30.3908 38.6117C30.9479 38.6117 31.3598 38.5501 31.6244 38.4248C31.8889 38.3009 32.092 38.1258 32.2327 37.8993C32.3741 37.6743 32.446 37.3863 32.446 37.0359C32.446 36.6863 32.3763 36.3997 32.2371 36.1769C32.0978 35.9519 31.8985 35.7826 31.6383 35.6653C31.3796 35.5481 30.964 35.4924 30.3908 35.4968V38.6117ZM30.3908 39.0654V41.5991V41.8916C30.3908 42.1004 30.4429 42.2595 30.5477 42.365C30.6532 42.4728 30.8086 42.5263 31.0153 42.5263C31.3217 42.5263 31.6024 42.4566 31.8611 42.3196C32.1198 42.1818 32.3162 41.9832 32.454 41.7208C32.5911 41.4599 32.6607 41.1674 32.6607 40.8471C32.6607 40.4792 32.583 40.1494 32.4298 39.8569C32.2745 39.5645 32.048 39.3578 31.7453 39.2384C31.4433 39.1189 30.9918 39.061 30.3908 39.0654ZM38.4252 35.5085V38.7312H38.582C39.0855 38.7312 39.4498 38.5736 39.6763 38.2592C39.9013 37.9455 40.0464 37.4815 40.108 36.8688H40.3345V41.0106H40.108C40.0625 40.5591 39.9629 40.189 39.8134 39.9024C39.6624 39.6144 39.4894 39.4209 39.2908 39.3219C39.0914 39.2222 38.8034 39.1724 38.4252 39.1724V41.3961C38.4252 41.8322 38.4428 42.0968 38.4809 42.1943C38.5168 42.2917 38.5864 42.3709 38.6876 42.4325C38.7894 42.4948 38.9522 42.5263 39.1772 42.5263H39.6506C40.3887 42.5263 40.9809 42.3555 41.4273 42.0147C41.8721 41.6746 42.1924 41.1557 42.3859 40.4558H42.6029L42.2467 42.9675H35.4173V42.7652H35.6782C35.9068 42.7652 36.0915 42.7234 36.2308 42.6413C36.3327 42.5856 36.4104 42.4926 36.4639 42.3592C36.5056 42.2653 36.5276 42.0191 36.5276 41.6189V36.4034C36.5276 36.0435 36.5174 35.8229 36.4976 35.7394C36.4602 35.6016 36.3884 35.4968 36.2828 35.4227C36.1355 35.3135 35.9347 35.2578 35.6782 35.2578H35.4173V35.0548H42.0297V37.3943H41.8025C41.6911 36.8212 41.5321 36.4115 41.329 36.163C41.1268 35.9145 40.8402 35.7313 40.4679 35.614C40.2516 35.5444 39.8456 35.5085 39.249 35.5085H38.4252ZM46.3621 39.3871V41.5837C46.3621 42.0147 46.3877 42.2859 46.4419 42.3973C46.4933 42.5087 46.5871 42.5981 46.7219 42.6655C46.8553 42.7308 47.1023 42.7652 47.46 42.7652V42.9675H43.4377V42.7652C43.8041 42.7652 44.0526 42.7308 44.1816 42.6619C44.3135 42.5937 44.4044 42.5043 44.4564 42.3951C44.5099 42.2859 44.5356 42.0147 44.5356 41.5837V36.4393C44.5356 36.0076 44.5099 35.7372 44.4564 35.6258C44.4044 35.5144 44.3135 35.4249 44.1801 35.3575C44.0467 35.2915 43.7997 35.2578 43.4377 35.2578V35.0548H46.8868C48.0229 35.0548 48.8386 35.2578 49.3319 35.6617C49.8273 36.0677 50.0736 36.5727 50.0736 37.1796C50.0736 37.6948 49.9146 38.1338 49.5943 38.5003C49.2762 38.866 48.8364 39.1145 48.2757 39.2479C47.8997 39.3417 47.2614 39.3871 46.3621 39.3871ZM46.3621 35.5085V38.9335C46.4911 38.9415 46.5885 38.9459 46.6545 38.9459C47.1302 38.9459 47.4981 38.8045 47.7546 38.5223C48.0111 38.2394 48.1401 37.8018 48.1401 37.2089C48.1401 36.6203 48.0111 36.1908 47.7546 35.9182C47.4981 35.6456 47.1118 35.5085 46.6025 35.5085H46.3621ZM58.536 34.876V37.6208H58.3088C58.138 36.9011 57.8214 36.3477 57.356 35.9636C56.8906 35.5803 56.3636 35.389 55.775 35.389C55.2832 35.389 54.8318 35.5305 54.4199 35.8149C54.0102 36.0992 53.7104 36.4716 53.5191 36.9304C53.2743 37.5196 53.1534 38.1742 53.1534 38.8939C53.1534 39.6019 53.2428 40.2483 53.4194 40.8317C53.599 41.4122 53.8775 41.8542 54.2572 42.1503C54.6368 42.4486 55.1301 42.5981 55.7347 42.5981C56.2324 42.5981 56.6861 42.4882 57.0994 42.2719C57.5113 42.0528 57.9467 41.679 58.4048 41.1454V41.8263C57.9628 42.2895 57.5011 42.6259 57.0218 42.8348C56.5424 43.0437 55.9839 43.1471 55.3433 43.1471C54.4997 43.1471 53.7522 42.9778 53.0991 42.6399C52.4446 42.3013 51.9396 41.8139 51.5856 41.1813C51.2294 40.5474 51.0528 39.8723 51.0528 39.1563C51.0528 38.4028 51.2492 37.6868 51.6435 37.0103C52.0371 36.3338 52.5685 35.809 53.2384 35.4345C53.9068 35.0629 54.617 34.876 55.3712 34.876C55.926 34.876 56.5109 34.9969 57.1273 35.238C57.4857 35.3788 57.7122 35.4484 57.8074 35.4484C57.9328 35.4484 58.0405 35.403 58.1321 35.3113C58.2238 35.2197 58.2809 35.0746 58.3088 34.876H58.536ZM65.2335 36.3521C65.2291 35.9241 65.1778 35.6338 65.0803 35.4828C64.9806 35.3333 64.7343 35.2578 64.3386 35.2578H64.0754V35.0548H68.3125V35.2578H68.0384C67.6719 35.2578 67.4279 35.3297 67.3099 35.4704C67.1911 35.6118 67.131 35.9219 67.131 36.4034V41.6189C67.131 42.1063 67.1911 42.4185 67.3121 42.5578C67.4337 42.6956 67.6763 42.7652 68.0384 42.7652H68.3125V42.9675H64.0754V42.7652H64.3386C64.7065 42.7652 64.9469 42.6912 65.0627 42.5461C65.1756 42.3987 65.2335 42.0909 65.2335 41.6189V37.3064L62.4403 41.6988C62.4403 42.0785 62.4865 42.3489 62.5795 42.516C62.6734 42.6817 62.9262 42.7652 63.3359 42.7652H63.61V42.9675H59.373V42.7652H59.6361C60.0055 42.7652 60.2503 42.6912 60.3676 42.5461C60.4856 42.3987 60.5427 42.0909 60.5427 41.6189V36.4034C60.5427 35.9219 60.4951 35.6118 60.4013 35.4704C60.3082 35.3297 60.0539 35.2578 59.6361 35.2578H59.373V35.0548H63.61V35.2578H63.3359C62.9797 35.2578 62.7408 35.3355 62.6213 35.4902C62.5004 35.6456 62.4403 35.9497 62.4403 36.4034V40.746L65.2335 36.3521ZM76.009 35.0548V37.1913H75.806C75.6806 36.698 75.5436 36.344 75.3918 36.1293C75.2409 35.9123 75.032 35.7408 74.7674 35.614C74.6201 35.5444 74.3621 35.5085 73.992 35.5085H73.3953V41.6189C73.3953 42.0271 73.4166 42.2815 73.4606 42.3834C73.5046 42.4845 73.5918 42.5739 73.7193 42.6494C73.8483 42.7271 74.0235 42.7652 74.2463 42.7652H74.505V42.9675H70.3874V42.7652H70.6476C70.8748 42.7652 71.058 42.7234 71.1973 42.6413C71.2962 42.5856 71.3761 42.4926 71.434 42.3592C71.4758 42.2653 71.4971 42.0191 71.4971 41.6189V35.5085H70.9247C70.3955 35.5085 70.0114 35.6221 69.771 35.8464C69.4346 36.1608 69.2235 36.6086 69.1341 37.1913H68.9076V35.0548H76.009ZM79.6846 35.5085V38.7312H79.8422C80.345 38.7312 80.7092 38.5736 80.9357 38.2592C81.1607 37.9455 81.3058 37.4815 81.3674 36.8688H81.5946V41.0106H81.3674C81.322 40.5591 81.2223 40.189 81.0735 39.9024C80.9218 39.6144 80.7488 39.4209 80.5502 39.3219C80.3516 39.2222 80.0628 39.1724 79.6846 39.1724V41.3961C79.6846 41.8322 79.7029 42.0968 79.7403 42.1943C79.7762 42.2917 79.8458 42.3709 79.9477 42.4325C80.0489 42.4948 80.2123 42.5263 80.4366 42.5263H80.9101C81.6481 42.5263 82.2411 42.3555 82.6867 42.0147C83.1323 41.6746 83.4526 41.1557 83.6453 40.4558H83.8623L83.5061 42.9675H76.6774V42.7652H76.9376C77.1663 42.7652 77.3517 42.7234 77.491 42.6413C77.5921 42.5856 77.6698 42.4926 77.7233 42.3592C77.7651 42.2653 77.787 42.0191 77.787 41.6189V36.4034C77.787 36.0435 77.7775 35.8229 77.757 35.7394C77.7196 35.6016 77.6478 35.4968 77.5423 35.4227C77.3957 35.3135 77.1941 35.2578 76.9376 35.2578H76.6774V35.0548H83.2891V37.3943H83.0627C82.9513 36.8212 82.7922 36.4115 82.5892 36.163C82.3862 35.9145 82.0996 35.7313 81.728 35.614C81.5111 35.5444 81.105 35.5085 80.5084 35.5085H79.6846ZM91.9304 35.0548V37.1913H91.7273C91.602 36.698 91.4649 36.344 91.314 36.1293C91.1622 35.9123 90.9534 35.7408 90.6888 35.614C90.5415 35.5444 90.2835 35.5085 89.9133 35.5085H89.3167V41.6189C89.3167 42.0271 89.3387 42.2815 89.382 42.3834C89.4259 42.4845 89.5132 42.5739 89.6407 42.6494C89.7697 42.7271 89.9448 42.7652 90.1677 42.7652H90.4264V42.9675H86.3088V42.7652H86.5697C86.7962 42.7652 86.9794 42.7234 87.1187 42.6413C87.2176 42.5856 87.2975 42.4926 87.3554 42.3592C87.3972 42.2653 87.4192 42.0191 87.4192 41.6189V35.5085H86.846C86.3169 35.5085 85.9328 35.6221 85.6924 35.8464C85.356 36.1608 85.1449 36.6086 85.0555 37.1913H84.829V35.0548H91.9304ZM96.7164 42.7652V42.9675H92.5988V42.7652H92.859C93.0884 42.7652 93.2731 42.7234 93.4123 42.6413C93.5135 42.5856 93.5912 42.4926 93.6447 42.3592C93.6864 42.2653 93.7084 42.0191 93.7084 41.6189V36.4034C93.7084 35.9959 93.6864 35.7408 93.6447 35.6397C93.6014 35.5385 93.5157 35.4484 93.3867 35.3729C93.257 35.2959 93.0818 35.2578 92.859 35.2578H92.5988V35.0548H96.7164V35.2578H96.4554C96.229 35.2578 96.0457 35.2996 95.9065 35.381C95.8075 35.4367 95.7277 35.5305 95.6698 35.6639C95.628 35.757 95.606 36.004 95.606 36.4034V41.6189C95.606 42.0271 95.628 42.2815 95.6719 42.3834C95.7174 42.4845 95.8031 42.5739 95.9329 42.6494C96.0619 42.7271 96.237 42.7652 96.4554 42.7652H96.7164Z" fill="#333333"/>
<path d="M14.8078 13.5469V18.061H14.4347C14.1533 16.8766 13.6337 15.9677 12.8677 15.336C12.1026 14.7049 11.2355 14.3912 10.2673 14.3912C9.45963 14.3912 8.71718 14.6228 8.03995 15.0912C7.36639 15.5588 6.8724 16.17 6.55797 16.9257C6.1556 17.8939 5.95624 18.9705 5.95624 20.1542C5.95624 21.3188 6.10356 22.3823 6.39453 23.3403C6.68917 24.2953 7.14725 25.0216 7.7717 25.509C8.39689 26 9.20751 26.2448 10.2021 26.2448C11.02 26.2448 11.7654 26.0653 12.4463 25.7083C13.1235 25.3492 13.8396 24.7335 14.5916 23.857V24.9761C13.866 25.7384 13.1067 26.291 12.3188 26.634C11.5302 26.9778 10.6111 27.1478 9.55784 27.1478C8.17115 27.1478 6.94129 26.87 5.86829 26.3137C4.79162 25.7574 3.96121 24.9564 3.37853 23.9163C2.79293 22.8726 2.50195 21.7637 2.50195 20.5859C2.50195 19.3465 2.82591 18.1687 3.47381 17.0569C4.12099 15.9443 4.99464 15.0809 6.09696 14.466C7.19635 13.8547 8.36391 13.5469 9.60329 13.5469C10.5165 13.5469 11.4781 13.7462 12.4918 14.142C13.0803 14.3743 13.4534 14.4887 13.6109 14.4887C13.8169 14.4887 13.9935 14.4139 14.1438 14.2629C14.294 14.1127 14.3893 13.8738 14.4347 13.5469H14.8078ZM29.6877 20.3279C29.6877 22.3229 29.0728 23.9588 27.8393 25.2341C26.6065 26.5102 25.0036 27.1478 23.0247 27.1478C21.026 27.1478 19.459 26.5168 18.3244 25.2576C17.2184 24.027 16.6658 22.3787 16.6658 20.3052C16.6658 20.1645 16.6753 19.9776 16.6951 19.7489H26.273C26.2268 18.2574 25.9556 17.0532 25.458 16.1407C24.8174 14.9468 23.8294 14.3516 22.4947 14.3516C21.4774 14.3516 20.617 14.6624 19.917 15.281C19.2171 15.8988 18.7722 16.7131 18.5794 17.7275H18.246V13.5469H18.5794C18.7458 14.0966 19.0273 14.3714 19.423 14.3714C19.6099 14.3714 20.0937 14.2336 20.8852 13.9588C21.6739 13.6847 22.4552 13.5469 23.2277 13.5469C25.1047 13.5469 26.6519 14.1948 27.8656 15.4935C29.0794 16.7915 29.6877 18.4047 29.6877 20.3279ZM26.273 20.5925H20.1494C20.1494 22.3625 20.2571 23.6151 20.4733 24.351C20.8852 25.7318 21.7325 26.4215 23.0115 26.4215C25.1868 26.4215 26.273 24.4785 26.273 20.5925ZM42.7748 13.8415V17.3544H42.4414C42.2354 16.5431 42.0097 15.9611 41.7612 15.6079C41.5127 15.2509 41.169 14.9695 40.7336 14.7606C40.4918 14.6463 40.0667 14.5869 39.4584 14.5869H38.477V24.6361C38.477 25.306 38.5129 25.7252 38.5847 25.8916C38.6573 26.0587 38.8009 26.206 39.0105 26.3299C39.2231 26.4574 39.5104 26.5197 39.8769 26.5197H40.3019V26.8532H33.5312V26.5197H33.9599C34.3323 26.5197 34.6335 26.4515 34.8622 26.3174C35.0263 26.2258 35.1568 26.0719 35.2521 25.8527C35.3202 25.6988 35.3562 25.2935 35.3562 24.6361V14.5869H34.4143C33.5444 14.5869 32.9133 14.7738 32.5168 15.1432C31.9642 15.6599 31.6175 16.3958 31.4702 17.3544H31.0978V13.8415H42.7748ZM43.8156 13.8415H55.0221V17.3742H54.649C54.5281 16.7197 54.3251 16.1869 54.037 15.7742C53.7497 15.3623 53.4096 15.078 53.0131 14.9211C52.6173 14.7635 52.009 14.6851 51.1947 14.6851H48.82V19.7489H50.5373C52.3887 19.7489 53.7328 20.0758 54.5706 20.7266C55.4076 21.3811 55.8268 22.2511 55.8268 23.3403C55.8268 24.0827 55.6143 24.7211 55.1884 25.2605C54.7633 25.797 54.2305 26.1957 53.5892 26.4611C52.9479 26.7227 52.0127 26.8532 50.7791 26.8532H43.8156V26.5197C44.6196 26.5065 45.1334 26.3988 45.3591 26.1928C45.5849 25.9869 45.6992 25.542 45.6992 24.8515V15.9413C45.6992 15.2018 45.5849 14.721 45.3562 14.5019C45.1268 14.2827 44.6138 14.175 43.8156 14.175V13.8415ZM48.82 20.5925V24.5181C48.82 25.1359 48.9051 25.5742 49.0788 25.8263C49.2517 26.0785 49.5691 26.206 50.0367 26.206C50.7828 26.206 51.345 25.9539 51.7246 25.4467C52.1043 24.9432 52.2941 24.3121 52.2941 23.5565C52.2941 22.8272 52.1204 22.2152 51.7767 21.7212C51.4337 21.2243 51.0474 20.9135 50.6223 20.786C50.2001 20.6585 49.5984 20.5925 48.82 20.5925ZM64.3442 23.1438H59.7942L59.2283 24.4133C59.0488 24.8384 58.9601 25.1916 58.9601 25.4701C58.9601 25.8395 59.1074 26.1107 59.3984 26.2874C59.5721 26.3892 59.9972 26.4677 60.6744 26.5197V26.8532H56.3531V26.5197C56.8177 26.4479 57.204 26.2514 57.5016 25.9341C57.8021 25.6138 58.1751 24.9527 58.6134 23.9522L63.258 13.5865H63.4412L68.129 24.2403C68.5768 25.2605 68.9433 25.9048 69.2313 26.1701C69.4505 26.3724 69.7546 26.4874 70.1534 26.5197V26.8532H63.867V26.5197H64.125C64.6285 26.5197 64.9855 26.4479 65.1885 26.3042C65.3292 26.2023 65.3974 26.0521 65.3974 25.8593C65.3974 25.7413 65.3813 25.6204 65.3417 25.4958C65.3292 25.4401 65.2339 25.1953 65.0544 24.7665L64.3442 23.1438ZM64.0371 22.4373L62.097 18.0053L60.1115 22.4373H64.0371ZM75.7111 14.5869V19.886H75.9699C76.7973 19.886 77.3954 19.628 77.7685 19.1113C78.1386 18.5938 78.3768 17.8323 78.4787 16.8245H78.851V23.6349H78.4787C78.4032 22.8924 78.2397 22.2841 77.9942 21.8128C77.7457 21.3386 77.4614 21.0213 77.1338 20.8578C76.8069 20.6944 76.3327 20.6123 75.7111 20.6123V24.2696C75.7111 24.9857 75.7405 25.421 75.8028 25.5808C75.8614 25.7413 75.9757 25.8725 76.1428 25.9737C76.3099 26.0748 76.5782 26.1276 76.9476 26.1276H77.726C78.9397 26.1276 79.9145 25.8461 80.6474 25.2869C81.3796 24.7277 81.9066 23.8738 82.2239 22.7224H82.5801L81.9945 26.8532H70.7653V26.5197H71.1941C71.5701 26.5197 71.8743 26.4515 72.1029 26.3174C72.27 26.2258 72.3976 26.0719 72.4863 25.8527C72.5544 25.6988 72.5903 25.2935 72.5903 24.6361V16.0594C72.5903 15.4671 72.5742 15.1036 72.5412 14.9666C72.4797 14.7408 72.3617 14.5678 72.188 14.4462C71.9461 14.2666 71.6155 14.175 71.1941 14.175H70.7653V13.8415H81.6383V17.6879H81.2653C81.082 16.7461 80.8204 16.0725 80.4869 15.6636C80.1534 15.2546 79.6821 14.9534 79.0701 14.7606C78.7139 14.6463 78.047 14.5869 77.0656 14.5869H75.7111ZM92.1742 19.9483C93.4143 20.2363 94.2872 20.5859 94.7878 20.9949C95.5075 21.5776 95.8674 22.3332 95.8674 23.2618C95.8674 24.2403 95.4745 25.0509 94.6866 25.6922C93.7214 26.4677 92.3178 26.8532 90.4796 26.8532H83.8723V26.5197C84.474 26.5197 84.883 26.464 85.0955 26.3497C85.3118 26.2382 85.462 26.0917 85.547 25.9114C85.6357 25.7318 85.6782 25.2869 85.6782 24.5767V16.118C85.6782 15.4078 85.6357 14.9636 85.547 14.7804C85.462 14.5972 85.3081 14.4498 85.0926 14.3384C84.8735 14.2307 84.4674 14.175 83.8723 14.175V13.8415H90.1066C91.5988 13.8415 92.652 13.9756 93.2735 14.2402C93.8951 14.5055 94.3825 14.9013 94.7423 15.4276C95.0985 15.9545 95.2781 16.5167 95.2781 17.1089C95.2781 17.737 95.0494 18.2933 94.5913 18.7836C94.1333 19.271 93.3292 19.6602 92.1742 19.9483ZM88.681 19.6903C89.5964 19.6903 90.2737 19.5884 90.709 19.3824C91.1437 19.1794 91.4771 18.8921 91.7095 18.5191C91.9418 18.1489 92.0598 17.6747 92.0598 17.0994C92.0598 16.5233 91.9455 16.0528 91.7161 15.6863C91.4874 15.3169 91.1605 15.0384 90.7318 14.8456C90.3067 14.6529 89.6228 14.5612 88.681 14.5678V19.6903ZM88.681 20.4357V24.6031V25.0839C88.681 25.4276 88.766 25.6893 88.939 25.8623C89.1127 26.0389 89.3678 26.1276 89.7078 26.1276C90.2114 26.1276 90.6731 26.0125 91.0982 25.7875C91.5233 25.5618 91.8473 25.2341 92.073 24.8024C92.2988 24.3744 92.4131 23.8929 92.4131 23.3666C92.4131 22.7612 92.2856 22.2181 92.0334 21.7373C91.7784 21.2565 91.4053 20.9165 90.9084 20.72C90.4115 20.5243 89.6683 20.4291 88.681 20.4357Z" fill="#333333"/>
</svg>
